<svg id="图层_1" data-name="图层 1" xmlns="http://www.w3.org/2000/svg" viewBox="0 0 100 100"><defs><style>.cls-1{fill:#00aaef;}.cls-2{fill:#fff;}</style></defs><title>kkkk_alipay</title><circle class="cls-1" cx="50" cy="50" r="50"/><g id="_编组_" data-name="&lt;编组&gt;"><path class="cls-2" d="M32.249,68.9c-10.36,0-13.421-8.132-8.3-12.581,1.7-1.505,4.829-2.236,6.488-2.4C36.589,53.309,42.28,55.647,49,58.92c-4.728,6.144-10.741,9.98-16.753,9.98h0Zm36.808-9.367c-2.659-.891-6.239-2.25-10.214-3.682A53.576,53.576,0,0,0,64.4,41.861H51.274V37.148H67.347v-2.63H51.274V26.664H44.72A1.116,1.116,0,0,0,43.566,27.8v6.722H27.31v2.63H43.566V41.86H30.144v2.63H56.176a46.525,46.525,0,0,1-3.755,9.133c-8.439-2.776-17.454-5.034-23.117-3.646a13.344,13.344,0,0,0-7.321,4.143c-6.283,7.628-1.775,19.215,11.5,19.215,7.854,0,15.416-4.369,21.275-11.558,8.745,4.194,26.054,11.39,26.054,11.39V62.91s-2.17-.175-11.755-3.376h0Z"/></g></svg>