<svg id="图层_1" data-name="图层 1" xmlns="http://www.w3.org/2000/svg" viewBox="0 0 99.997 83.331"><defs><style>.cls-1{fill:#929292;}</style></defs><title>kkkk_bar-code</title><path id="bar-code" class="cls-1" d="M87.5,91.665h-75A12.474,12.474,0,0,1,0,79.245V20.755A12.472,12.472,0,0,1,12.5,8.335h75A12.472,12.472,0,0,1,100,20.755V79.245A12.474,12.474,0,0,1,87.5,91.665Zm6.944-70.452a8.394,8.394,0,0,0-7.407-7.359H12.964a8.392,8.392,0,0,0-7.407,7.359V78.786a8.392,8.392,0,0,0,7.407,7.359H87.036a8.394,8.394,0,0,0,7.407-7.359V21.214ZM81.451,68.435H78.225a1.609,1.609,0,0,1-1.613-1.6V33.173a1.607,1.607,0,0,1,1.613-1.6h3.226a1.607,1.607,0,0,1,1.613,1.6V66.825a1.609,1.609,0,0,1-1.613,1.6v0.006Zm-13.7,0H66.94a1.609,1.609,0,0,1-1.613-1.6V33.173a1.607,1.607,0,0,1,1.613-1.6h0.807a1.607,1.607,0,0,1,1.613,1.6V66.825a1.609,1.609,0,0,1-1.615,1.6h0Zm-8.872,0H54.844a1.609,1.609,0,0,1-1.613-1.6V33.173a1.607,1.607,0,0,1,1.613-1.6h4.031a1.607,1.607,0,0,1,1.613,1.6V66.825a1.609,1.609,0,0,1-1.615,1.6h0Zm-12.9,0H44.361a1.609,1.609,0,0,1-1.613-1.6V33.173a1.607,1.607,0,0,1,1.613-1.6h1.613a1.606,1.606,0,0,1,1.611,1.6V66.825a1.607,1.607,0,0,1-1.611,1.6H45.969Zm-11.3,0H33.871a1.609,1.609,0,0,1-1.613-1.6V33.173a1.607,1.607,0,0,1,1.613-1.6h0.807a1.607,1.607,0,0,1,1.613,1.6V66.825a1.609,1.609,0,0,1-1.613,1.6v0.006Zm-12.9,0H19.356a2.407,2.407,0,0,1-2.42-2.394V33.975a2.407,2.407,0,0,1,2.407-2.407h2.431a2.407,2.407,0,0,1,2.419,2.4V66.025a2.407,2.407,0,0,1-2.411,2.4H21.775v0.006Z" transform="translate(-0.002 -8.335)"/></svg>