<svg id="图层_1" data-name="图层 1" xmlns="http://www.w3.org/2000/svg" viewBox="0 0 100 100"><defs><style>.cls-1{fill:#eb1c24;}.cls-2{fill:#fff;}</style></defs><title>kkkk_bd-wallet</title><circle class="cls-1" cx="50" cy="50" r="50"/><path class="cls-2" d="M50.415,56.025a5.4,5.4,0,0,1-.682-0.459c-1.793-1.687-3.568-3.393-5.369-5.071a0.909,0.909,0,0,1-.025-1.565C45.872,47.5,47.377,46.045,48.9,44.6a1.658,1.658,0,0,1,2.614.018c1.294,1.3,2.6,2.586,3.886,3.893a1.689,1.689,0,0,1,.015,2.724c-1.39,1.351-2.738,2.745-4.116,4.108A9.152,9.152,0,0,1,50.415,56.025Z"/><path class="cls-2" d="M51.294,40.691A10.188,10.188,0,0,1,59.333,39.6c7.525,1.8,12.068,8.6,11.1,16.647A20.661,20.661,0,0,1,47.808,74.274,20.413,20.413,0,0,1,29.443,54.141C29.3,47.069,32.182,41.6,37.462,37.176c1.314-1.1,1.321-1.109-.211-1.915a13.3,13.3,0,0,1-6.973-8.114,0.991,0.991,0,0,1-.016-1.168A1.032,1.032,0,0,1,31.3,26.1c9.288,3.482,18.576,3.119,27.873.028,2.991-.994,5.329-0.538,6.787,1.268,1.9,2.351,1.389,3.8-1.535,4.272a41.13,41.13,0,0,0-19.84,8.912c-3.473,2.842-6.3,6.089-7.215,10.713C36,58.187,40.776,64.978,48.108,66.362c6.394,1.207,13.275-3.67,14.406-10.21a12.863,12.863,0,0,0-9.748-15.008C52.268,41.015,51.784,40.843,51.294,40.691Z"/></svg>