<svg id="图层_1" data-name="图层 1" xmlns="http://www.w3.org/2000/svg" viewBox="0 0 100 75.734"><defs><style>.cls-1{fill:#00aaef;}</style></defs><title>kkkk_alipay2</title><g id="_编组_" data-name="&lt;编组&gt;"><path class="cls-1" d="M21.2,80.67c-16.811,0-21.779-13.2-13.469-20.415,2.762-2.442,7.836-3.628,10.528-3.9,9.983-.983,19.218,2.811,30.126,8.122C40.709,74.446,30.951,80.67,21.2,80.67h0Zm59.729-15.2C76.61,64.024,70.8,61.819,64.35,59.5a86.938,86.938,0,0,0,9.011-22.7H52.068V29.146H78.15V24.878H52.068V12.133H41.433A1.81,1.81,0,0,0,39.56,13.97V24.878H13.181v4.268H39.56v7.646H17.78V41.06H60.023a75.5,75.5,0,0,1-6.093,14.82c-13.694-4.5-28.323-8.169-37.513-5.916-5.869,1.446-9.65,4.019-11.88,6.723C-5.659,69.065,1.656,87.867,23.2,87.867c12.745,0,25.016-7.09,34.523-18.755C71.912,75.917,100,87.594,100,87.594V70.949s-3.521-.284-19.075-5.478h0Z" transform="translate(0 -12.133)"/></g></svg>