<svg id="图层_1" data-name="图层 1" xmlns="http://www.w3.org/2000/svg" viewBox="0 0 100 82.973"><defs><style>.cls-1{fill:#45c01a;}</style></defs><title>kkkk_wechat2</title><g id="_编组_" data-name="&lt;编组&gt;"><path class="cls-1" d="M56.737,13.691A42.143,42.143,0,0,0,22.211,11,35.131,35.131,0,0,0,4.1,25.258,26.7,26.7,0,0,0,.781,45.735C2.584,53.4,7.9,59.83,14.371,64.125c-1.218,3.54-2.418,7.079-3.549,10.645,4.093-2.126,8.136-4.342,12.213-6.505a45.308,45.308,0,0,0,15.243,2.164,26.259,26.259,0,0,1-1.052-12.3,26.256,26.256,0,0,1,8.333-14.806c7.185-6.729,17.374-9.571,27.067-8.887C70.817,25.543,64.572,18.029,56.737,13.691ZM28.882,29.813a5.157,5.157,0,0,1-8.117,2.828c-3.156-2.227-2.274-7.759,1.44-8.871C25.842,22.365,29.978,26.059,28.882,29.813ZM54.122,28.8c0.031,4.008-5.305,6.505-8.308,3.784-3.115-2.227-2.232-7.653,1.426-8.781A5.163,5.163,0,0,1,54.122,28.8Z" transform="translate(0 -8.513)"/><path class="cls-1" d="M98.081,53.118A27.558,27.558,0,0,0,85.2,40.006a35.453,35.453,0,0,0-31.783.117c-6.8,3.492-12.469,9.742-14.084,17.348a22.3,22.3,0,0,0,2.833,16.508c4.421,7.33,12.4,12.007,20.712,13.51a37.879,37.879,0,0,0,18.076-1.2c3.5,1.366,6.633,3.567,10.028,5.193-0.872-2.934-1.8-5.857-2.806-8.748a28.594,28.594,0,0,0,9.349-10.327A22.378,22.378,0,0,0,98.081,53.118Zm-34.132,2.2a4.1,4.1,0,1,1-5.251-5.3C61.766,48.722,65.293,52.252,63.949,55.314Zm19.979,0.375a4.135,4.135,0,0,1-6.516,1.117,6.483,6.483,0,0,1-1.44-3.041c0.467-1.9,1.738-3.885,3.9-3.972C82.866,49.386,85.489,53.017,83.928,55.689Z" transform="translate(0 -8.513)"/></g></svg>