<svg id="图层_1" data-name="图层 1" xmlns="http://www.w3.org/2000/svg" viewBox="0 0 100 68"><defs><style>.cls-1{fill:#f87f7f;}</style></defs><title>kkkk_card</title><g id="_编组_" data-name="&lt;编组&gt;"><path id="_路径_" data-name="&lt;路径&gt;" class="cls-1" d="M60.679,38.651A2.577,2.577,0,0,0,59.012,38H58.073a2.573,2.573,0,0,0-1.671.651,1.709,1.709,0,0,0,0,2.738A2.671,2.671,0,0,0,58.073,42h0.939a2.659,2.659,0,0,0,1.667-.59,1.759,1.759,0,0,0,.686-1.371A1.809,1.809,0,0,0,60.679,38.651Z" transform="translate(0 -16)"/><path id="_路径_2" data-name="&lt;路径&gt;" class="cls-1" d="M76.8,38.055a1.847,1.847,0,0,0-1.168.655A2.2,2.2,0,0,0,75,40.366v8.021a2.2,2.2,0,0,0,.629,1.656,1.892,1.892,0,0,0,1.191.664,3.143,3.143,0,0,0,3.2-2.008,11.08,11.08,0,0,0,.817-4.271,11.6,11.6,0,0,0-.808-4.347A3.125,3.125,0,0,0,76.8,38.055Z" transform="translate(0 -16)"/><path id="_路径_3" data-name="&lt;路径&gt;" class="cls-1" d="M42.1,38.595A2.509,2.509,0,0,0,40.435,38h-0.95a2.5,2.5,0,0,0-1.664.595,1.748,1.748,0,0,0-.686,1.378,1.832,1.832,0,0,0,.686,1.391A2.482,2.482,0,0,0,39.485,42h0.95a2.489,2.489,0,0,0,1.664-.629,1.8,1.8,0,0,0,.679-1.379A1.776,1.776,0,0,0,42.1,38.595Z" transform="translate(0 -16)"/><path id="_复合路径_" data-name="&lt;复合路径&gt;" class="cls-1" d="M94.913,16H5.048A5.055,5.055,0,0,0,0,21.085V62H100V21.085A5.09,5.09,0,0,0,94.913,16ZM19.738,50.17a2.5,2.5,0,0,0,1.688.83h4.429a2.66,2.66,0,0,1,1.8.485,1.784,1.784,0,0,1,.732,1.453,1.836,1.836,0,0,1-.732,1.486,2.668,2.668,0,0,1-1.8.576H17.388a2.28,2.28,0,0,1-1.716-.752,2.384,2.384,0,0,1-.671-1.8v-16.1A2.244,2.244,0,0,1,17.388,34H25.9a2.787,2.787,0,0,1,1.839.491,1.84,1.84,0,0,1,.749,1.5,1.794,1.794,0,0,1-.749,1.453A2.821,2.821,0,0,1,25.9,38H21.426a2.43,2.43,0,0,0-1.688.707A2.359,2.359,0,0,0,19,40.414v7.973A2.609,2.609,0,0,0,19.738,50.17ZM47,52.409a2.741,2.741,0,0,1-.606,1.817A1.876,1.876,0,0,1,44.887,55a1.7,1.7,0,0,1-1.387-.684,2.248,2.248,0,0,1-.5-1.628V48.539A2.782,2.782,0,0,0,40.435,46h-0.95a2.529,2.529,0,0,0-1.714.8A2.564,2.564,0,0,0,37,48.539v3.87a2.833,2.833,0,0,1-.544,1.817A1.783,1.783,0,0,1,34.991,55a1.734,1.734,0,0,1-1.443-.776A2.775,2.775,0,0,1,33,52.409V36.352a2.188,2.188,0,0,1,.7-1.716A2.23,2.23,0,0,1,35.447,34h9.034a2.3,2.3,0,0,1,1.794.636A2.185,2.185,0,0,1,47,36.352V52.409Zm18.221,2.659a1.7,1.7,0,0,1-1.952-.187,6.359,6.359,0,0,1-1.481-1.747A19.4,19.4,0,0,1,60.542,50.7c-0.4-.9-0.763-1.691-1.108-2.387a3.05,3.05,0,0,0-1.154-1.343,2.481,2.481,0,0,0-1.242-.447,0.943,0.943,0,0,0-.752.495A2.359,2.359,0,0,0,56,48.555V52.57a2.916,2.916,0,0,1-.747,1.792,2.016,2.016,0,0,1-1.576.756,2.421,2.421,0,0,1-1.783-.756A3.037,3.037,0,0,1,51,52.57V36.462a2.631,2.631,0,0,1,.991-1.77A3.061,3.061,0,0,1,54.027,34h9.026a2.946,2.946,0,0,1,2.018.692A2.513,2.513,0,0,1,66,36.462v7.182a3.092,3.092,0,0,1-.6,1.679,2.556,2.556,0,0,1-1.032.868,0.718,0.718,0,0,0-.586.827,4.549,4.549,0,0,0,.424,1.2c0.376,0.755.953,1.919,1.751,3.49S66.5,54.409,65.221,55.068ZM85,44.284v1.3a14.269,14.269,0,0,1-.032,1.536,10.527,10.527,0,0,1-1.875,5.617C81.979,54.248,80.142,55,77.543,55H73.209a2.1,2.1,0,0,1-1.622-.752,2.36,2.36,0,0,1-.588-1.8v-16.1a2.139,2.139,0,0,1,.588-1.716A1.993,1.993,0,0,1,73.209,34h4.334c2.6,0,4.464.644,5.579,2.171a10.413,10.413,0,0,1,1.846,5.576A11.443,11.443,0,0,1,85,43.124v1.16Z" transform="translate(0 -16)"/><path id="_路径_4" data-name="&lt;路径&gt;" class="cls-1" d="M0,78.914A5.056,5.056,0,0,0,5.048,84H94.913A5.092,5.092,0,0,0,100,78.914V68H0V78.914Z" transform="translate(0 -16)"/></g></svg>