<svg id="图层_1" data-name="图层 1" xmlns="http://www.w3.org/2000/svg" viewBox="0 0 100 100"><defs><style>.cls-1{fill:#e94b3a;}.cls-2{fill:#fff;}</style></defs><title>kkkk_cash</title><circle class="cls-1" cx="50" cy="50" r="50"/><path class="cls-2" d="M49.063,58.356l0.136,5.8a7.674,7.674,0,0,0,1.075.121c0.245,0,.418-0.047.642-0.063l0.078-5.379c-0.193-.04-0.36-0.086-0.567-0.132C49.934,58.584,49.5,58.469,49.063,58.356Zm-3.8-6.824a1.85,1.85,0,0,0,.362,1.222,2.093,2.093,0,0,0,.5.493l0.155-3.5A2.478,2.478,0,0,0,45.26,51.532Zm4.632-2.739c-0.3,0-.511.05-0.787,0.073l-0.074,5.451c0.376,0.108.8,0.222,1.272,0.345,0.256,0.074.47,0.13,0.713,0.2L50.97,48.9A6.991,6.991,0,0,0,49.892,48.793Zm13-6.812c-2.13-2.036-7.315-5.115-7.8-6.7-0.053-.149-0.1-0.287-0.137-0.421a0.8,0.8,0,0,0,.81-0.669,0.846,0.846,0,0,0-.945-0.678h-0.05c0.124-1.465,1.522-2.267,2.91-6.929-5.519-1.688-5.411-.382-9.617,1.688-3.114.651-2.9-3.594-6.831-1.634,2,4.247,3.642,5.389,4.007,6.885a0.681,0.681,0,1,0,0,1.338c-0.012.069-.021,0.13-0.04,0.2-0.424,1.666-5.808,4.728-8.093,6.916-5.011,4.806-15.088,31.271,3.2,31.909,8.6,0.3,9.692.3,9.692,0.3s1.093,0,9.694-.3C77.983,73.252,67.906,46.787,62.895,41.981ZM58.149,60.733a5.667,5.667,0,0,1-1.171,2.839,6.9,6.9,0,0,1-2.749,2.039,8.662,8.662,0,0,1-.85.266l-0.134,1.881a1.191,1.191,0,0,1-1.227.971,1.028,1.028,0,0,1-1.163-.9l0.021-1.508c-0.2.006-.378,0.044-0.583,0.044-0.369,0-.7-0.032-1.041-0.059l0.038,1.521a1.015,1.015,0,0,1-1.157.895,1.2,1.2,0,0,1-1.227-.979l-0.145-1.887a7.379,7.379,0,0,1-2.015-.979,8.352,8.352,0,0,1-2.762-4.485,1.2,1.2,0,0,1,1.312-1.41,1.935,1.935,0,0,1,1.67,1.715,4.162,4.162,0,0,0,1.559,2.452l-0.371-5.737a12.284,12.284,0,0,1-1.293-.567A4.963,4.963,0,0,1,42.8,54.814a5.141,5.141,0,0,1-.573-2.7,5.418,5.418,0,0,1,.7-2.427,5.92,5.92,0,0,1,1.67-1.879,7.457,7.457,0,0,1,1.887-.941l0.18-2.082a1.338,1.338,0,0,1,1.321-1.071,1.059,1.059,0,0,1,1.224.947l-0.046,1.691c0.163-.006.325-0.031,0.495-0.031,0.453,0,.846.044,1.264,0.08L50.9,44.655a1.08,1.08,0,0,1,1.234-.958,1.321,1.321,0,0,1,1.326,1.058l0.17,2.2c0.069,0.024.143,0.037,0.208,0.061a6.133,6.133,0,0,1,2.641,1.853,8.556,8.556,0,0,1,1.3,3.285,1.457,1.457,0,0,1-1.456,1.6,1.813,1.813,0,0,1-1.69-1.762,3.314,3.314,0,0,0-.778-1.607l0.115,5.352a18.052,18.052,0,0,1,1.735.632,4.131,4.131,0,0,1,1.978,1.706A4.276,4.276,0,0,1,58.149,60.733ZM54.1,59.762a1.745,1.745,0,0,0-.268-0.123l-0.267,3.824a1.516,1.516,0,0,0,.142-0.067,2.824,2.824,0,0,0,1.256-2.015A1.605,1.605,0,0,0,54.1,59.762Z"/></svg>