<svg id="图层_1" data-name="图层 1" xmlns="http://www.w3.org/2000/svg" viewBox="0 0 100 87.4"><defs><style>.cls-1{fill:#929292;}</style></defs><title>kkkk_cashier-inactive</title><g id="_编组_" data-name="&lt;编组&gt;"><path id="_复合路径_" data-name="&lt;复合路径&gt;" class="cls-1" d="M87.5,71.8c-6-2.7-15-9.6-28.3-12,3.4-3.6,6-9.3,8.6-16,1.5-3.9,1.3-7.2,1.3-12,0-3.5.7-9.1-.2-12.2-3-10.4-10.4-13.3-19-13.3-8.7,0-16.1,2.9-19,13.3-0.9,3.1-.2,8.7-0.2,12.2,0,4.7-.3,8.1,1.3,12,2.7,6.8,5.2,12.4,8.6,16.1-13.2,2.4-22.1,9.3-28.1,12C0.1,77.3,0,83.4,0,83.4V93.7H100V83.4S99.9,77.3,87.5,71.8ZM78.4,87.9H55.8V78.7H78.4v9.2Z" transform="translate(0 -6.3)"/></g></svg>