<svg id="图层_1" data-name="图层 1" xmlns="http://www.w3.org/2000/svg" viewBox="0 0 94.601 100"><defs><style>.cls-1{fill:#00aaef;}</style></defs><title>kkkk_chart</title><g id="_编组_" data-name="&lt;编组&gt;"><path id="_矩形_" data-name="&lt;矩形&gt;" class="cls-1" d="M2.7,0h8.233a0,0,0,0,1,0,0V95.486a3.72,3.72,0,0,1-3.72,3.72H6.42a3.72,3.72,0,0,1-3.72-3.72V0a0,0,0,0,1,0,0Z" transform="translate(10.933 99.206) rotate(-180)"/><path id="_矩形_2" data-name="&lt;矩形&gt;" class="cls-1" d="M23.367,40.09H38.658a0,0,0,0,1,0,0V78.118a3.72,3.72,0,0,1-3.72,3.72h-7.85a3.72,3.72,0,0,1-3.72-3.72V40.09a0,0,0,0,1,0,0Z" transform="translate(59.326 121.928) rotate(-180)"/><path id="_矩形_3" data-name="&lt;矩形&gt;" class="cls-1" d="M44.862,8.668H60.153a0,0,0,0,1,0,0v69.45a3.72,3.72,0,0,1-3.72,3.72h-7.85a3.72,3.72,0,0,1-3.72-3.72V8.668A0,0,0,0,1,44.862,8.668Z" transform="translate(102.316 90.507) rotate(-180)"/><path id="_矩形_4" data-name="&lt;矩形&gt;" class="cls-1" d="M66.357,27.824H81.648a0,0,0,0,1,0,0V78.118a3.72,3.72,0,0,1-3.72,3.72h-7.85a3.72,3.72,0,0,1-3.72-3.72V27.824a0,0,0,0,1,0,0Z" transform="translate(145.305 109.662) rotate(-180)"/><path id="_矩形_5" data-name="&lt;矩形&gt;" class="cls-1" d="M45.883,48.583h8.233a0,0,0,0,1,0,0v90.881a3.72,3.72,0,0,1-3.72,3.72H49.6a3.72,3.72,0,0,1-3.72-3.72V48.583a0,0,0,0,1,0,0Z" transform="translate(-48.583 145.883) rotate(-90)"/></g></svg>