<svg id="图层_1" data-name="图层 1" xmlns="http://www.w3.org/2000/svg" viewBox="0 0 99.075 99.054"><defs><style>.cls-1{fill:#ffb359;}</style></defs><title>kkkk_checkbook-report</title><path id="类别报表" class="cls-1" d="M90.355,9.634a31.657,31.657,0,0,0-44.678.13L2.662,52.78a7.51,7.51,0,0,0,0,10.621L36.588,97.327a7.51,7.51,0,0,0,10.621,0L90.268,54.269A31.6,31.6,0,0,0,90.355,9.634ZM80.2,20.024a7.317,7.317,0,1,1-10.348,0A7.317,7.317,0,0,1,80.2,20.024ZM42.577,43.919l13.7,13.7a5,5,0,0,1-7.071,7.071l-13.7-13.7A5,5,0,0,1,42.577,43.919Zm-5.38,32.8-13.7-13.7a5,5,0,0,1,7.071-7.071l13.7,13.7A5,5,0,0,1,37.2,76.723Z" transform="translate(-0.462 -0.473)"/></svg>