<svg id="图层_1" data-name="图层 1" xmlns="http://www.w3.org/2000/svg" viewBox="0 0 100 100"><defs><style>.cls-1{fill:#ffb359;}</style></defs><title>kkkk_checkbook-detail</title><path id="账单明细" class="cls-1" d="M100,14.285A14.285,14.285,0,0,0,85.715,0H14.285A14.285,14.285,0,0,0,0,14.285V85.715A14.285,14.285,0,0,0,14.285,100H85.715A14.285,14.285,0,0,0,100,85.715V14.285ZM57,49.714A4.286,4.286,0,0,1,52.714,54H21.286A4.286,4.286,0,0,1,17,49.714V47.286A4.286,4.286,0,0,1,21.286,43H52.714A4.286,4.286,0,0,1,57,47.286v2.429Zm20,26A4.286,4.286,0,0,1,72.714,80H21.286A4.286,4.286,0,0,1,17,75.714V73.286A4.286,4.286,0,0,1,21.286,69H72.714A4.286,4.286,0,0,1,77,73.286v2.429Zm3-52A4.286,4.286,0,0,1,75.714,28H21.286A4.286,4.286,0,0,1,17,23.714V21.286A4.286,4.286,0,0,1,21.286,17H75.714A4.286,4.286,0,0,1,80,21.286v2.429Z"/></svg>