<svg id="图层_1" data-name="图层 1" xmlns="http://www.w3.org/2000/svg" viewBox="0 0 99.997 99.997"><defs><style>.cls-1{fill:#e94b3a;}</style></defs><title>kkkk_checkbook</title><path id="checkbook" class="cls-1" d="M87.5,100h-75A12.513,12.513,0,0,1,0,87.5v-75A12.513,12.513,0,0,1,12.5,0h75A12.513,12.513,0,0,1,100,12.5v75A12.513,12.513,0,0,1,87.5,100Zm6.944-87.034a8.42,8.42,0,0,0-7.407-7.407H12.964a8.418,8.418,0,0,0-7.407,7.407V87.036a8.418,8.418,0,0,0,7.407,7.407H87.036a8.42,8.42,0,0,0,7.407-7.407V12.964ZM75.925,53.7h-50a3.7,3.7,0,1,1,0-7.407h50A3.7,3.7,0,0,1,75.925,53.7ZM62.963,31.482H25.927a3.7,3.7,0,0,1,0-7.407H62.963A3.7,3.7,0,0,1,62.963,31.482ZM25.927,68.518H50a3.7,3.7,0,1,1,0,7.407H25.927A3.7,3.7,0,0,1,25.927,68.518Z" transform="translate(-0.002 -0.002)"/></svg>