<svg id="图层_1" data-name="图层 1" xmlns="http://www.w3.org/2000/svg" viewBox="0 0 99.997 99.997"><defs><style>.cls-1{fill:#e94b3a;}</style></defs><title>kkkk_collection-active</title><path id="collection" class="cls-1" d="M87.5,100h-75A12.513,12.513,0,0,1,0,87.5v-75A12.513,12.513,0,0,1,12.5,0h75A12.513,12.513,0,0,1,100,12.5v75A12.513,12.513,0,0,1,87.5,100ZM12.964,94.443H87.036a8.42,8.42,0,0,0,7.407-7.407v-50H5.557v50A8.418,8.418,0,0,0,12.964,94.443ZM87.036,5.557H12.964a8.418,8.418,0,0,0-7.407,7.407V31.482H94.443V12.964A8.42,8.42,0,0,0,87.036,5.557ZM29.63,59.259H18.519V48.148H29.63V59.259Zm0,24.073H18.519V72.222H29.63V83.332ZM55.555,59.259H44.445V48.148H55.555V59.259Zm0,24.073H44.445V72.222H55.555V83.332ZM81.481,59.259H70.37V48.148H81.481V59.259Zm0,24.073H70.37V72.222H81.481V83.332Z" transform="translate(-0.002 -0.002)"/></svg>