<svg id="图层_1" data-name="图层 1" xmlns="http://www.w3.org/2000/svg" viewBox="0 0 99.997 99.997"><defs><style>.cls-1{fill:#e94b3a;}</style></defs><title>kkkk_collection</title><path id="collection" class="cls-1" d="M87.5,100h-75A12.513,12.513,0,0,1,0,87.5v-75A12.513,12.513,0,0,1,12.5,0h75A12.513,12.513,0,0,1,100,12.5v75A12.513,12.513,0,0,1,87.5,100ZM12.963,94.442H87.034a8.42,8.42,0,0,0,7.407-7.407v-50H5.555v50A8.418,8.418,0,0,0,12.963,94.442ZM87.034,5.555H12.963a8.418,8.418,0,0,0-7.407,7.407V31.481H94.442V12.963A8.42,8.42,0,0,0,87.034,5.555Zm-57.406,53.7H18.518V48.147H29.629V59.257Zm0,24.073H18.518V72.22H29.629V83.331ZM55.554,59.257H44.443V48.147H55.554V59.257Zm0,24.073H44.443V72.22H55.554V83.331ZM81.479,59.257H70.368V48.147H81.479V59.257Zm0,24.073H70.368V72.22H81.479V83.331Z"/></svg>