<svg id="图层_1" data-name="图层 1" xmlns="http://www.w3.org/2000/svg" viewBox="0 0 96.192 94.831"><defs><style>.cls-1{fill:#00aaef;}</style></defs><title>kkkk_connect</title><g id="_编组_" data-name="&lt;编组&gt;"><path id="_路径_" data-name="&lt;路径&gt;" class="cls-1" d="M95.923,80.206l-20.334-11.9-5.839,9.31S50.131,77.239,35.919,54.9s-7.028-22.959-7.028-22.959c1.69-.42,6-1.577,6-1.577L20.583,2.584S-2.97,15.547,3.277,33.2,21.862,64.9,33.732,76.77s38.085,28.894,52.008,16.087S95.923,80.206,95.923,80.206Z" transform="translate(-2.222 -2.584)"/><path id="_路径_2" data-name="&lt;路径&gt;" class="cls-1" d="M92.711,56h5.7A53.67,53.67,0,0,0,48,5.025v5.706A47.733,47.733,0,0,1,92.711,56Z" transform="translate(-2.222 -2.584)"/><path id="_路径_3" data-name="&lt;路径&gt;" class="cls-1" d="M77.389,56h5.543A40.511,40.511,0,0,0,48,21.045v5.543A35,35,0,0,1,77.389,56Z" transform="translate(-2.222 -2.584)"/><path id="_路径_4" data-name="&lt;路径&gt;" class="cls-1" d="M63.271,56h5.548A35.008,35.008,0,0,0,48,36.414V41.8A31.142,31.142,0,0,1,63.271,56Z" transform="translate(-2.222 -2.584)"/></g></svg>