<svg id="图层_1" data-name="图层 1" xmlns="http://www.w3.org/2000/svg" viewBox="0 0 100 100"><defs><style>.cls-1{fill:#f8aa3b;}.cls-2{fill:#fff;}</style></defs><title>kkkk_credit-card</title><circle class="cls-1" cx="50" cy="50" r="50"/><path class="cls-2" d="M74.358,41.146V41.055H25.444V37.662a4.39,4.39,0,0,1,4.391-4.388H69.86a4.511,4.511,0,0,1,4.531,4.388v3.484H74.358Zm0.2,7.892V62.53c0,2.424-2.27,4.2-4.695,4.2H29.836a4.228,4.228,0,0,1-4.391-4.2V49.038H74.556ZM44.131,54.91H37.225v2.907h6.906V54.91Zm8.864,0H47.042v2.907h5.953V54.91Zm9.755,0H54.861v2.907H62.75V54.91ZM28.392,62.65h34.4V59.779h-34.4V62.65Zm0-4.832H35.3V54.911H28.392v2.907Z"/></svg>