<svg id="图层_1" data-name="图层 1" xmlns="http://www.w3.org/2000/svg" viewBox="0 0 100.018 73.237"><defs><style>.cls-1{fill:#000;}</style></defs><title>kkkk_delete</title><path id="delete" class="cls-1" d="M88.742,86.618s-31.393-.044-43.66-0.044-15.492-5.634-15.492-5.634L1.469,52.856C-0.3,51.09.013,50,.013,50H0.057s-0.317-1.09,1.456-2.862L29.62,19.052s3.224-5.634,15.492-5.634,43.629-.037,43.629-0.037,11.267,1.813,11.267,11.267v50.7C100.009,84.8,88.742,86.618,88.742,86.618Zm7.042-60.453c0-8.363-8.581-8.559-8.581-8.559s-30.647.038-41.522,0.038-13.735,4.979-13.735,4.979L7.017,47.469C5.445,49.035,5.725,50,5.725,50H5.685s-0.282.965,1.291,2.535l24.94,24.845s2.862,4.977,13.742,4.977,41.535,0.031,41.535.031,8.591-.2,8.591-8.559V50h0V26.166ZM81.175,66.706a2.218,2.218,0,0,1-3.128-.141L63.94,52.459,50.217,66.164a2.138,2.138,0,1,1-3.014-3.01L60.927,49.446l-13.38-13.38a2.121,2.121,0,1,1,2.989-2.987l13.38,13.38L77.97,32.422a2.139,2.139,0,1,1,3.014,3.011L66.927,49.472,81.034,63.577a2.22,2.22,0,0,1,.142,3.129h0Z" transform="translate(0.009 -13.382)"/></svg>