<svg id="图层_1" data-name="图层 1" xmlns="http://www.w3.org/2000/svg" viewBox="0 0 100 87.98"><defs><style>.cls-1{fill:#929292;}</style></defs><title>kkkk_delivery-man-inactive</title><path id="_路径_" data-name="&lt;路径&gt;" class="cls-1" d="M87.5,71.8c-6-2.7-15-9.6-28.3-12,3.4-3.6,6-9.3,8.6-16,1.5-3.9,1.3-7.2,1.3-12,0-.834.04-1.79,0.088-2.8H85.727a3.525,3.525,0,0,0,0-7H72.242A22.535,22.535,0,0,0,60.71,8.615a17.008,17.008,0,0,0-2.758-1.174A24.214,24.214,0,0,0,49.8,6.02,22.944,22.944,0,0,0,26.5,29h4.112c0.048,1.01.089,1.966,0.089,2.8,0,4.7-.3,8.1,1.3,12,2.7,6.8,5.2,12.4,8.6,16.1-13.2,2.4-22.1,9.3-28.1,12C0.1,77.3,0,83.4,0,83.4V94H100V83.4S99.9,77.3,87.5,71.8Z" transform="translate(0 -6.02)"/></svg>