<svg id="图层_1" data-name="图层 1" xmlns="http://www.w3.org/2000/svg" viewBox="0 0 100 87.987"><defs><style>.cls-1{fill:#e94b3a;}</style></defs><title>kkkk_delivery-man-active</title><path id="_路径_" data-name="&lt;路径&gt;" class="cls-1" d="M87.5,71.781c-6-2.7-15-9.6-28.3-12,3.4-3.6,6-9.3,8.6-16,1.5-3.9,1.3-7.191,1.3-11.991,0-.834.04-1.791,0.088-2.791H85.727a3.525,3.525,0,0,0,0-7H72.242A21.715,21.715,0,0,0,60.71,8.606a17.027,17.027,0,0,0-2.758-1.179A24.211,24.211,0,0,0,49.8,6.013,22.95,22.95,0,0,0,26.5,29h4.112c0.048,1,.089,1.957.089,2.791,0,4.7-.3,8.1,1.3,12,2.7,6.8,5.2,12.4,8.6,16.1-13.2,2.4-22.1,9.3-28.1,12C0.1,77.283,0,83.381,0,83.381V94H100V83.381S99.9,77.281,87.5,71.781Z" transform="translate(0 -6.013)"/></svg>