<svg xmlns="http://www.w3.org/2000/svg" width="98.659" height="85.713" viewBox="0 0 34.531 30">
  <defs>
    <style>
      .cls-1 {
        fill: #666;
        fill-rule: evenodd;
      }
    </style>
  </defs>
  <path id="eye" class="cls-1" d="M658.754,863.657l-25.909,25.714h0a2.162,2.162,0,0,1-3.686-1.515,2.128,2.128,0,0,1,.632-1.515h0L655.7,860.626h0a2.163,2.163,0,0,1,3.686,1.516,2.126,2.126,0,0,1-.632,1.515h0Zm-14.482,2.77A8.6,8.6,0,0,0,635.636,875a8.444,8.444,0,0,0,.321,2.192L632,881.114c-3.092-2.4-5-5.05-5-6.115,0-2.143,7.733-10.714,17.272-10.714a16.936,16.936,0,0,1,4.14.544l-1.931,1.917A8.61,8.61,0,0,0,644.272,866.427Zm0,17.143A8.6,8.6,0,0,0,652.909,875a8.444,8.444,0,0,0-.321-2.192l3.953-3.924c3.092,2.4,5,5.051,5,6.116,0,2.143-7.733,10.714-17.273,10.714a16.886,16.886,0,0,1-4.139-.545l1.931-1.916A8.608,8.608,0,0,0,644.272,883.57Z" transform="translate(-627 -860)"/>
</svg>
