<svg id="图层_1" data-name="图层 1" xmlns="http://www.w3.org/2000/svg" viewBox="0 0 100 97.997"><defs><style>.cls-1{fill:#6cc795;fill-rule:evenodd;}</style></defs><title>kkkk_fix</title><g id="_编组_" data-name="&lt;编组&gt;"><path id="_复合路径_" data-name="&lt;复合路径&gt;" class="cls-1" d="M64.778,51.553A25.433,25.433,0,0,0,99.61,23.64L81.486,43.014l-17.106-3.1L58.517,23.562,78.036,2.7A25.49,25.49,0,0,0,51.029,38.124c-7.884,13.871-19.7,25.46-24.355,29.747a15.774,15.774,0,1,0,10.058,9.15A108.441,108.441,0,0,1,64.778,51.553ZM22.13,91.336a8.38,8.38,0,1,1,8.39-8.38A8.385,8.385,0,0,1,22.13,91.336Z" transform="translate(0 -1.001)"/><polygon id="_路径_" data-name="&lt;路径&gt;" class="cls-1" points="23.645 30.775 38.587 46.08 45.753 38.924 30.81 23.618 34.393 20.04 14.33 0 0 14.314 20.062 34.354 23.645 30.775"/><path id="_复合路径_2" data-name="&lt;复合路径&gt;" class="cls-1" d="M70.147,54.909S57.853,58.248,49.409,72.924c-0.338-.843,22.629,23.11,22.629,23.11a10.142,10.142,0,0,0,14.33,0L92.1,90.308a10.113,10.113,0,0,0,0-14.314Zm9.9,37.178a2.547,2.547,0,0,1-3.6,0l-18.422-18.4a2.544,2.544,0,1,1,3.6-3.6l18.421,18.4A2.54,2.54,0,0,1,80.043,92.087Zm8.106-8.1a2.548,2.548,0,0,1-3.6,0l-18.422-18.4a2.544,2.544,0,0,1,3.6-3.6l18.421,18.4A2.541,2.541,0,0,1,88.149,83.989Z" transform="translate(0 -1.001)"/></g></svg>