<?xml version="1.0" encoding="utf-8"?>
<!-- Generator: Adobe Illustrator 18.0.0, SVG Export Plug-In . SVG Version: 6.00 Build 0)  -->
<!DOCTYPE svg PUBLIC "-//W3C//DTD SVG 1.1//EN" "http://www.w3.org/Graphics/SVG/1.1/DTD/svg11.dtd">
<svg version="1.1" id="图层_1" xmlns="http://www.w3.org/2000/svg" xmlns:xlink="http://www.w3.org/1999/xlink" x="0px" y="0px"
	 width="1001px" height="1001px" viewBox="0 0 1001 1001" style="enable-background:new 0 0 1001 1001;" xml:space="preserve">
  <defs>
    <style>
      .cls-1 {
        fill: #6cc795;
      }
    </style>
  </defs>
<g>
	<path class="cls-1"  d="M0,97.32v806.36h1001V97.32H0z M917.6,820.28H83.42V180.72H917.6V820.28z"/>
	<path class="cls-1" d="M689.91,679.02c0,0-0.31-31.35-64.43-59.86c-31.06-13.74-77.12-49.31-145.39-61.53c17.47-18.7,30.7-47.9,44.26-82.51
		c7.87-20.05,6.48-37.15,6.48-61.52c0-17.98,3.46-46.8-1.04-62.64c-15.02-53.6-53.11-68.35-97.64-68.35
		c-44.6,0-82.66,14.85-97.7,68.45c-4.37,15.89-1,44.64-1,62.54c0,24.41-1.32,41.6,6.58,61.67c13.66,34.78,26.72,63.95,44.07,82.59
		c-67.68,12.37-113.41,47.7-144.27,61.42c-63.86,28.51-64.21,59.74-64.21,59.74v52.92l514.29-0.09V679.02z"/>
	<rect class="cls-1" x="603.98" y="298.23" width="208.17" height="41.17"/>
	<rect class="cls-1" x="603.98" y="395.71" width="122.93" height="41.16"/>
	<rect class="cls-1" x="603.98" y="492.3" width="173.74" height="41.17"/>
</g>
</svg>
