<?xml version="1.0" encoding="utf-8"?>
<!-- Generator: Adobe Illustrator 18.0.0, SVG Export Plug-In . SVG Version: 6.00 Build 0)  -->
<!DOCTYPE svg PUBLIC "-//W3C//DTD SVG 1.1//EN" "http://www.w3.org/Graphics/SVG/1.1/DTD/svg11.dtd">
<svg version="1.1" id="图层_1" xmlns="http://www.w3.org/2000/svg" xmlns:xlink="http://www.w3.org/1999/xlink" x="0px" y="0px"
	 width="1001px" height="1001px" viewBox="0 0 1001 1001" style="enable-background:new 0 0 1001 1001;" xml:space="preserve">
<path  style="fill-rule:evenodd;clip-rule:evenodd;fill:#ffb359" d="M920.72,603.36h-52.99c-8.62,31.19-20.99,60.74-36.78,88.17l48.99,49
	c31.35,31.35,31.35,82.18,0,113.53l-28.38,28.39c-31.35,31.35-82.18,31.35-113.53,0l-49.3-49.31
	c-27.35,15.57-56.82,27.69-87.87,36.15v51.42c0,44.34-35.94,80.28-80.28,80.28h-40.14c-44.33,0-80.28-35.94-80.28-80.28V869.3
	c-31.04-8.46-60.51-20.58-87.86-36.15l-49.3,49.31c-31.35,31.35-82.18,31.35-113.53,0l-28.38-28.39
	c-31.35-31.35-31.35-82.18,0-113.53l48.99-49c-15.79-27.43-28.16-56.98-36.78-88.17h-53C35.94,603.36,0,567.42,0,523.08v-40.14
	c0-44.34,35.94-80.28,80.28-80.28h52.36c8.31-30.9,20.18-60.29,35.53-87.56l-47.1-47.1c-31.35-31.35-31.35-82.18,0-113.54
	l28.38-28.38c31.35-31.36,82.18-31.36,113.53,0l46.18,46.18c28.24-16.44,58.74-29.26,90.99-38.05V80.28
	C400.15,35.95,436.09,0,480.43,0h40.14c44.33,0,80.28,35.94,80.28,80.28v53.93c32.25,8.79,62.75,21.61,90.99,38.05l46.18-46.18
	c31.35-31.36,82.18-31.36,113.53,0l28.38,28.38c31.35,31.35,31.35,82.18,0,113.54l-47.1,47.1c15.35,27.27,27.22,56.66,35.53,87.56
	h52.35c44.34,0,80.28,35.94,80.28,80.28v40.14C1001,567.42,965.06,603.36,920.72,603.36z M500.5,283.49
	c-121.93,0-220.77,98.84-220.77,220.77c0,121.93,98.84,220.77,220.77,220.77c121.93,0,220.77-98.85,220.77-220.77
	C721.27,382.33,622.43,283.49,500.5,283.49z M500.5,602.1c-55.42,0-100.35-44.93-100.35-100.35c0-55.42,44.93-100.35,100.35-100.35
	c55.42,0,100.35,44.93,100.35,100.35C600.85,557.18,555.92,602.1,500.5,602.1z"/>
</svg>
