<svg id="图层_1" data-name="图层 1" xmlns="http://www.w3.org/2000/svg" viewBox="0 0 100 100"><defs><style>.cls-1{fill:#00aaef;}</style></defs><title>kkkk_i</title><path id="_复合路径_" data-name="&lt;复合路径&gt;" class="cls-1" d="M50,0a50,50,0,1,0,50,50A50,50,0,0,0,50,0Zm6.1,76.572C51.8,80.338,40.193,87.6,36.02,81.414c-2.6-3.855,2.869-16.587,4.124-19.815s4.573-11.745,5.469-14.614-1.614-3.5-6.9,1.972-6.285,2.874-4.393.448c0,0,7.8-11.745,19.187-11.925s5.648,11.925,5.648,11.925S52.517,67.7,51.71,69.579s-3.2,11.325,6.276.538c3.228-3.676,3.586-3.228,4.3-2.241S60.407,72.807,56.1,76.572Zm6.049-44.764c-4.411,3.323-10.232,3.038-13-.638s-1.439-9.35,2.972-12.673,10.232-3.038,13,.638S66.563,28.485,62.152,31.809Z"/></svg>