<svg id="图层_1" data-name="图层 1" xmlns="http://www.w3.org/2000/svg" viewBox="0 0 83 99.625"><defs><style>.cls-1{fill:#6cc795;}</style></defs><title>kkkk_lock-green</title><path id="_复合路径_" data-name="&lt;复合路径&gt;" class="cls-1" d="M80.944,34H75V25.375a25,25,0,0,0-50,0V34H17.944A9.952,9.952,0,0,0,8,44V90a9.952,9.952,0,0,0,9.944,10h63A10.048,10.048,0,0,0,91,90V44A10.048,10.048,0,0,0,80.944,34ZM33,25.057C33,15.965,40.909,8.6,50,8.6s17,7.37,17,16.461V34H33V25.057ZM55,71.341v8.075a5,5,0,0,1-10,0V71.341A9.979,9.979,0,1,1,55,71.341Z" transform="translate(-8 -0.375)"/></svg>