<svg id="图层_1" data-name="图层 1" xmlns="http://www.w3.org/2000/svg" viewBox="0 0 99.997 99.997"><defs><style>.cls-1{fill:#e94b3a;}</style></defs><title>kkkk_manage</title><path id="manage" class="cls-1" d="M37.5,0H9.375A9.385,9.385,0,0,0,0,9.375V37.5a9.385,9.385,0,0,0,9.374,9.374H37.5A9.383,9.383,0,0,0,46.874,37.5V9.375A9.383,9.383,0,0,0,37.5,0Zm3.124,37.5A3.128,3.128,0,0,1,37.5,40.624H9.375A3.128,3.128,0,0,1,6.251,37.5V9.375A3.128,3.128,0,0,1,9.375,6.251H37.5a3.128,3.128,0,0,1,3.124,3.124V37.5Zm50-37.5H62.5a9.385,9.385,0,0,0-9.376,9.374V37.5A9.385,9.385,0,0,0,62.5,46.874H90.623A9.385,9.385,0,0,0,100,37.5V9.375A9.385,9.385,0,0,0,90.623,0Zm3.126,37.5a3.128,3.128,0,0,1-3.126,3.124H62.5A3.128,3.128,0,0,1,59.374,37.5V9.375A3.128,3.128,0,0,1,62.5,6.251H90.623a3.128,3.128,0,0,1,3.126,3.124V37.5ZM37.5,53.124H9.375A9.385,9.385,0,0,0,0,62.5V90.623A9.385,9.385,0,0,0,9.375,100H37.5a9.385,9.385,0,0,0,9.374-9.376V62.5A9.385,9.385,0,0,0,37.5,53.124Zm3.124,37.5A3.128,3.128,0,0,1,37.5,93.749H9.375a3.128,3.128,0,0,1-3.124-3.126V62.5a3.128,3.128,0,0,1,3.124-3.126H37.5A3.128,3.128,0,0,1,40.624,62.5V90.623Zm50-37.5H62.5A9.385,9.385,0,0,0,53.124,62.5V90.623A9.385,9.385,0,0,0,62.5,100H90.623A9.385,9.385,0,0,0,100,90.623V62.5A9.385,9.385,0,0,0,90.623,53.124Zm3.126,37.5a3.128,3.128,0,0,1-3.126,3.126H62.5a3.13,3.13,0,0,1-3.126-3.126V62.5A3.13,3.13,0,0,1,62.5,59.374H90.623A3.128,3.128,0,0,1,93.749,62.5V90.623Z" transform="translate(-0.002 -0.002)"/></svg>