<svg id="图层_1" data-name="图层 1" xmlns="http://www.w3.org/2000/svg" viewBox="0 0 100 100"><defs><style>.cls-1{fill:#e94b3a;}</style></defs><title>kkkk_minus</title><path id="minus" class="cls-1" d="M50,0A50,50,0,1,1,0,50,50,50,0,0,1,50,0h0ZM79.87,27.432l0.27-.27a2.246,2.246,0,0,0,.4-1.27,1.986,1.986,0,0,0-.73-1.649,30.983,30.983,0,0,0-6.168-4.46,2.242,2.242,0,0,0-1.195-.324,1.892,1.892,0,0,0-1.724,1,2.056,2.056,0,0,0-.465,1.324,1.689,1.689,0,0,0,.862,1.514q3.243,2.149,5.638,4.054l0.068,0.081H68.4V20.784q0-1.865-2.519-1.865a1.892,1.892,0,0,0-2.389,1.865v6.649H42.535a5.067,5.067,0,0,0-5.77,5.7A260.386,260.386,0,0,1,35.57,61.487a43,43,0,0,1-4.576,15.459,3.207,3.207,0,0,0-.465,1.595,2.243,2.243,0,0,0,1.259,2.135,3.373,3.373,0,0,0,1.527.405,2.7,2.7,0,0,0,2.519-1.73A46.693,46.693,0,0,0,40.478,62.3,247.215,247.215,0,0,0,41.805,34.27a2.583,2.583,0,0,1,.4-1.73,2.227,2.227,0,0,1,1.792-.459h19.63A172.662,172.662,0,0,0,65.749,57.3q0.4,2.351,1.324,5.838A45.924,45.924,0,0,1,55.467,76.109a3.119,3.119,0,0,0-1.259,2.324,2.351,2.351,0,0,0,.541,1.46,2.538,2.538,0,0,0,1.924.973,3.324,3.324,0,0,0,1.922-.784,52.474,52.474,0,0,0,10.27-11.216A31.236,31.236,0,0,0,74.3,78.433a5,5,0,0,0,3.849,1.919A3.576,3.576,0,0,0,81.6,78.216,26.37,26.37,0,0,0,83.786,68V67.784A1.808,1.808,0,0,0,82,65.676H81.532a1.892,1.892,0,0,0-2.057,2,29.431,29.431,0,0,1-.862,5.892,1.022,1.022,0,0,1-.795.811,1.222,1.222,0,0,1-.93-0.676,29.937,29.937,0,0,1-4.841-10.081l1.459-2.865a83.472,83.472,0,0,0,6.1-19.378,2.854,2.854,0,0,0,.068-0.676A2.057,2.057,0,0,0,77.7,38.568H77.687a3.454,3.454,0,0,0-.665-0.054,1.892,1.892,0,0,0-2.187,1.865,74.941,74.941,0,0,1-4.443,16.135l-0.068-.405a178.262,178.262,0,0,1-1.857-24.027H80.811a1.849,1.849,0,0,0,1.924-2.27,1.924,1.924,0,0,0-1.924-2.378H79.87ZM24.424,23.784a2.465,2.465,0,0,0-1.924-.865,2.87,2.87,0,0,0-1.792.595,2.452,2.452,0,0,0-.995,1.865,2.138,2.138,0,0,0,.665,1.568,58.914,58.914,0,0,1,7.427,9.784,2.308,2.308,0,0,0,1.989,1.378,3.57,3.57,0,0,0,1.792-.649,2.433,2.433,0,0,0,1.127-2.054,2.86,2.86,0,0,0-.465-1.595,69.6,69.6,0,0,0-7.824-10.027h0Zm7.36,29.324a3.673,3.673,0,0,0-1.324-.324A1.892,1.892,0,0,0,28.47,54.46a87.545,87.545,0,0,1-9.022,18.919,3.4,3.4,0,0,0-.541,1.649,2.33,2.33,0,0,0,1.327,2.054,2.7,2.7,0,0,0,1.524.487,2.754,2.754,0,0,0,2.454-1.73,83.694,83.694,0,0,0,9.019-19.405,4.633,4.633,0,0,0,.2-1.189,2.432,2.432,0,0,0-1.659-2.135h0.011ZM59.973,42.568a1.859,1.859,0,0,0,1.789-2.324,1.781,1.781,0,0,0-1.789-2.189H45.581q-1.792-.081-1.792,2.189a1.86,1.86,0,0,0,1.792,2.324H59.973ZM60.968,53a4.054,4.054,0,0,0-4.576-4.649h-6.7A4.073,4.073,0,0,0,45.116,53V65.946a4.054,4.054,0,0,0,4.576,4.649h6.7a4.084,4.084,0,0,0,4.576-4.649V53h0Zm-11.408.973a1.408,1.408,0,0,1,1.659-1.514H54.8a1.4,1.4,0,0,1,1.724,1.514V65A1.462,1.462,0,0,1,54.8,66.594H51.219A1.43,1.43,0,0,1,49.559,65V53.973h0Z" transform="translate(0 0)"/></svg>