<svg id="图层_1" data-name="图层 1" xmlns="http://www.w3.org/2000/svg" viewBox="0 0 67 100"><defs><style>.cls-1{fill:#ffb359;fill-rule:evenodd;}</style></defs><title>kkkk_mobile</title><g id="_编组_" data-name="&lt;编组&gt;"><path id="_复合路径_" data-name="&lt;复合路径&gt;" class="cls-1" d="M75.125,0H24.875A8.354,8.354,0,0,0,16.5,8.333V91.666A8.355,8.355,0,0,0,24.875,100h50.25A8.355,8.355,0,0,0,83.5,91.666V8.333A8.354,8.354,0,0,0,75.125,0ZM39.4,4.166H60.6V8.333H39.4V4.166ZM50,93.75a4.167,4.167,0,1,1,4.187-4.166A4.177,4.177,0,0,1,50,93.75ZM75.125,79.166H24.875L24.962,12.5H75.125V79.166Z" transform="translate(-16.5)"/><path id="_路径_" data-name="&lt;路径&gt;" class="cls-1" d="M38.336,44.942l8.094-8.028,0.034,29.573A3.482,3.482,0,0,0,50.031,70a3.592,3.592,0,0,0,3.522-3.694L53.52,36.735l8.15,8.234a3.567,3.567,0,0,0,5.1.006,3.7,3.7,0,0,0-.006-5.172L52.729,25.564l-0.1-.1a3.573,3.573,0,0,0-5.3-.006l-0.1.1-14,14.207a3.7,3.7,0,0,0,.006,5.172A3.567,3.567,0,0,0,38.336,44.942Z" transform="translate(-16.5)"/></g></svg>