<svg id="图层_1" data-name="图层 1" xmlns="http://www.w3.org/2000/svg" viewBox="0 0 98.443 100"><defs><style>.cls-1{fill:#f87f7f;fill-rule:evenodd;}</style></defs><title>kkkk_plane</title><path id="_复合路径_" data-name="&lt;复合路径&gt;" class="cls-1" d="M60.495,33.371h2.46c2.083,0,3.127-.886,3.127-2.677q0-3.052-5.81-3.057H56.217L50.084,19.5h2.9c1.934,0,2.905-.9,2.905-2.672,0-2.048-1.348-3.062-4.053-3.062H45.918Q35.67,0,32.985,0A4.836,4.836,0,0,0,30.28,1.017,2.751,2.751,0,0,0,28.83,3.172q0,1.15,3.089,5.927T40.9,26.957Q46.8,40.035,46.8,42.766c0,1.167-1.751,1.808-5.265,1.916q-17.3.109-24.81,1.633a48.472,48.472,0,0,1-4.3-5.538Q8.992,36,7.708,35.1c-0.861-.6-2.379-0.906-4.572-0.906a3.935,3.935,0,0,0-2.357.5q0,2.116,5.2,15.341Q0.771,62.052.779,65.377a3.978,3.978,0,0,0,2.357.492c2.193,0,3.7-.291,4.543-0.876s2.415-2.472,4.714-5.68a49.042,49.042,0,0,1,4.327-5.567,105.037,105.037,0,0,0,17.395,1.466c6.587,0.085,10.359.27,11.282,0.582a1.644,1.644,0,0,1,1.4,1.5q0,2.683-5.891,15.78-5.886,13.116-8.986,17.887T28.83,96.889a2.692,2.692,0,0,0,1.451,2.128,4.917,4.917,0,0,0,2.705.983q2.694,0,12.933-13.708h5.916q4.058,0,4.053-3.057c0-1.792-.971-2.677-2.905-2.677h-2.9l6.133-8.134h4.056q5.809,0,5.81-3.056c0-1.792-1.045-2.682-3.127-2.682h-2.46l9.75-11.524H82.958q16.26,0,16.263-5.4,0-2.129-6.552-3.5a53.314,53.314,0,0,0-9.712-1.36H70.245Z" transform="translate(-0.779 0)"/></svg>