<svg id="图层_1" data-name="图层 1" xmlns="http://www.w3.org/2000/svg" viewBox="0 0 84.314 96.342"><defs><style>.cls-1{fill:#fb7600;}</style></defs><title>kkkk_purse</title><g id="_编组_" data-name="&lt;编组&gt;"><path id="_路径_" data-name="&lt;路径&gt;" class="cls-1" d="M58.51,22.8l-0.167-1.764L62.281,7.743l-4.031-1.5-3.96,10L52.477,2.583,45.223,5.024l2.248,11.35L43.163,10H37.719l1.891,12.6A48.885,48.885,0,0,1,58.51,22.8Z" transform="translate(-7.843 -2.583)"/><path id="_路径_2" data-name="&lt;路径&gt;" class="cls-1" d="M51,65.83V79.186c5-.392,7.082-2.651,7.082-6.792C58.714,69.608,57,67.422,51,65.83Z" transform="translate(-7.843 -2.583)"/><path id="_复合路径_" data-name="&lt;复合路径&gt;" class="cls-1" d="M37.592,26C8.092,32,7.843,90.75,7.843,90.75c18,14.75,84.314,6.25,84.314,0C92.157,35.231,67.092,20,37.592,26ZM51,85.6V90H47V85.529c-9-.829-13.421-5.42-14.992-13.8l7.164-1.992c0.489,5.4,2.828,8.491,7.828,9.3V64.685c-10-2.317-13.836-6.531-13.278-12.652C34.136,44.3,38,40.054,47,39.3V35h4v4.359c8,0.824,11.991,4.969,13.437,12.452L57.276,53.8C56.446,49.424,55,46.853,51,46.082v12.54c10,2.36,14.663,7.023,14.385,13.992C64.821,80.636,60,84.955,51,85.6Z" transform="translate(-7.843 -2.583)"/><path id="_路径_3" data-name="&lt;路径&gt;" class="cls-1" d="M40.8,52.033c-0.248,2.214,1.2,4.019,6.2,5.412V46Q41,46.863,40.8,52.033Z" transform="translate(-7.843 -2.583)"/></g></svg>