<svg id="图层_1" data-name="图层 1" xmlns="http://www.w3.org/2000/svg" viewBox="0 0 94.722 100"><defs><style>.cls-1{fill:#00aaef;}</style></defs><title>kkkk_qq</title><g id="_编组_" data-name="&lt;编组&gt;"><path id="_复合路径_" data-name="&lt;复合路径&gt;" class="cls-1" d="M5.891,57.732c-3.739,8.8-4.346,17.2-1.344,18.767,2.07,1.081,5.315-1.38,8.353-5.9a24.8,24.8,0,0,0,8.43,12.953c-4.459,1.646-7.371,4.335-7.371,7.383,0,5.01,7.882,9.062,17.609,9.062,8.774,0,16.04-3.292,17.382-7.621,0.36-.006,1.746-0.006,2.1,0C52.391,96.7,59.663,100,68.431,100c9.728,0,17.609-4.057,17.609-9.062,0-3.043-2.91-5.737-7.371-7.383A24.827,24.827,0,0,0,87.1,70.6c3.037,4.517,6.274,6.978,8.347,5.9,3-1.569,2.411-9.971-1.341-18.767-2.938-6.917-6.923-12.011-9.972-13.136,0.044-.438.066-0.887,0.066-1.33a13.4,13.4,0,0,0-2.012-7.156,3.392,3.392,0,0,0,.022-0.471,7.554,7.554,0,0,0-.793-3.381C80.647,14.278,68.941,0,50,0S19.335,14.278,18.573,32.258a7.526,7.526,0,0,0-.8,3.381c0,0.155.011,0.316,0.017,0.471a13.48,13.48,0,0,0-2,7.156c0,0.443.017,0.887,0.056,1.33-3.026,1.125-7.025,6.224-9.957,13.136h0Zm0,0" transform="translate(-2.639)"/></g></svg>