<?xml version="1.0" encoding="utf-8"?>
<!-- Generator: Adobe Illustrator 19.0.0, SVG Export Plug-In . SVG Version: 6.00 Build 0)  -->
<svg version="1.1" id="图层_1" xmlns="http://www.w3.org/2000/svg" xmlns:xlink="http://www.w3.org/1999/xlink" x="0px" y="0px"
	 viewBox="0 0 1001 1001" style="enable-background:new 0 0 1001 1001;" xml:space="preserve">
<style type="text/css">
	.st0{fill:#E84B3A;}
</style>
<path class="st0" d="M867.53,1001v-66.74h66.74v-66.73H1001v66.73V1001H867.53z M867.53,934.26H800.8V1001H667.34v-66.74h66.73
	v-66.73h66.73v-66.74h66.73h66.74v66.74h-66.74V934.26z M734.07,734.06h66.73v66.73h-66.73V734.06z M533.87,800.79v-66.73h66.73
	v66.73H533.87z M734.07,800.79v66.74H600.6v-66.74H734.07z M600.6,934.26h-66.73v-66.73h66.73V934.26z M400.4,1001v-66.74h133.46
	V1001H400.4z M400.4,867.53v-66.74v-66.73h66.73v66.73h66.74v66.74H400.4z M600.6,667.33h133.47v66.73H600.6V667.33z M800.8,600.6
	v66.73h-66.73V600.6H800.8z M734.07,467.13h66.73v66.73h-66.73V467.13z M734.07,600.6h-66.73v-66.74h66.73V600.6z M600.6,533.86
	v66.74h-66.73v-66.74v-66.73h133.47v66.73H600.6z M467.13,667.33V600.6h66.74v66.73H467.13z M400.4,533.86h66.73v66.74H400.4V533.86
	z M266.93,467.13H400.4v66.73H266.93V467.13z M266.93,600.6H200.2v-66.74h66.73V600.6z M133.47,533.86v-66.73h66.73v66.73H133.47z
	 M0,600.6v-66.74h133.47v66.74H0z M0,400.4h133.47v66.73H0V400.4z M200.2,400.4h66.73v66.73H200.2V400.4z M467.13,400.4h66.74v66.73
	h-66.74V400.4z M400.4,333.66h66.73v66.74H400.4V333.66z M400.4,200.19h66.73v66.73H400.4V200.19z M400.4,66.73h66.73v66.73H400.4
	V66.73z M600.6,0v66.73H467.13V0H600.6z M600.6,133.46v66.73H467.13v-66.73H600.6z M533.87,266.92v66.74h-66.74v-66.74H533.87z
	 M667.34,400.4h66.73v66.73h-66.73V400.4z M867.53,400.4v66.73H800.8V400.4H867.53z M867.53,533.86v66.74H800.8v-66.74H867.53z
	 M867.53,667.33h66.74v66.73h-66.74V667.33z M1001,533.86v133.47h-66.73V533.86H1001z M1001,734.06v66.73h-66.73v-66.73H1001z
	 M934.27,400.4H1001v66.73h-66.73V400.4z M667.34,0H1001v333.66H667.34V0z M734.07,266.92h200.2V66.73h-200.2V266.92z M800.8,133.46
	h66.73v66.73H800.8V133.46z M0,0h333.67v333.66H0V0z M66.73,266.92h200.2V66.73H66.73V266.92z M133.47,133.46h66.73v66.73h-66.73
	V133.46z M333.67,1001H0V667.33h333.67V1001z M266.93,734.06H66.73v200.2h200.2V734.06z M200.2,867.53h-66.73v-66.74h66.73V867.53z"
	/>
</svg>
