<svg id="图层_1" data-name="图层 1" xmlns="http://www.w3.org/2000/svg" viewBox="0 0 75.211 98.16"><defs><style>.cls-1{fill:#e94b3a;}.cls-2{fill:#ff931e;}.cls-3{fill:#fff;}</style></defs><title>kkkk_red-envelope</title><g id="_编组_" data-name="&lt;编组&gt;"><path id="_复合路径_" data-name="&lt;复合路径&gt;" class="cls-1" d="M87,14.428A13.428,13.428,0,0,0,73.572,1H25.428A13.428,13.428,0,0,0,12,14.428V85.572A13.428,13.428,0,0,0,25.428,99H73.572A13.428,13.428,0,0,0,87,85.572V14.428Z" transform="translate(-12 -0.84)"/><path id="_路径_" data-name="&lt;路径&gt;" class="cls-2" d="M24.567,0.846C24.421,0.86,24.278.884,24.134,0.9c-0.307.039-.613,0.08-0.913,0.139-0.078.015-.154,0.034-0.232,0.05A13.438,13.438,0,0,0,12.707,11.386L49.63,32.876l37.581-21.7A13.327,13.327,0,0,0,74.168,1H25.88c-0.1,0-.192-0.1-0.289-0.1C25.247,0.909,24.9.815,24.567,0.846Z" transform="translate(-12 -0.84)"/><path id="refund" class="cls-3" d="M53.432,80.4a3.432,3.432,0,1,1-6.863,0V75.251H39.705a3.432,3.432,0,1,1,0-6.863h6.863V63.24H39.705a3.432,3.432,0,1,1,0-6.863h5.753a3.767,3.767,0,0,1,.089-0.456L37.826,48.2a3.432,3.432,0,0,1,4.768-4.936l0.084,0.084L50,50.665l7.323-7.321a3.432,3.432,0,1,1,4.936,4.768q-0.041.043-.084,0.084l-7.744,7.744a4.41,4.41,0,0,1,.11.438h5.753a3.432,3.432,0,1,1,0,6.863H53.432v5.147h6.863a3.432,3.432,0,1,1,0,6.863H53.432V80.4Z" transform="translate(-12 -0.84)"/></g></svg>