<?xml version="1.0" encoding="utf-8"?>
<!-- Generator: Adobe Illustrator 19.0.0, SVG Export Plug-In . SVG Version: 6.00 Build 0)  -->
<svg version="1.1" id="图层_1" xmlns="http://www.w3.org/2000/svg" xmlns:xlink="http://www.w3.org/1999/xlink" x="0px" y="0px"
	 viewBox="0 0 1001 1001" style="enable-background:new 0 0 1001 1001;" xml:space="preserve">
<style type="text/css">
	.st0{fill:#E84B3A;}
</style>
<path id="XMLID_106_" class="st0" d="M500.5,0C224.08,0,0,224.08,0,500.5C0,776.92,224.08,1001,500.5,1001S1001,776.92,1001,500.5
	C1001,224.08,776.92,0,500.5,0z M561.6,766.49c-43.08,37.69-159.27,110.4-201.04,48.46c-26.03-38.59,28.72-166.04,41.28-198.35
	c12.56-32.31,45.77-117.57,54.75-146.29c8.98-28.72-16.16-35-69.11,19.74c-52.95,54.75-62.92,28.77-43.98,4.49
	c0,0,78.08-117.57,192.06-119.37c113.98-1.8,56.54,119.37,56.54,119.37s-66.41,183.09-74.49,201.93
	c-8.08,18.85-31.99,113.37,62.82,5.39c32.31-36.8,35.9-32.31,43.08-22.44C630.7,689.3,604.68,728.79,561.6,766.49z M622.14,318.4
	c-44.15,33.27-102.42,30.41-130.14-6.38c-27.72-36.79-14.4-93.59,29.75-126.86c44.15-33.27,102.42-30.41,130.14,6.38
	C679.61,228.34,666.3,285.14,622.14,318.4z"/>
</svg>
