<svg id="图层_1" data-name="图层 1" xmlns="http://www.w3.org/2000/svg" viewBox="0 0 92 98.032"><defs><style>.cls-1{fill:#ffb359;}</style></defs><title>kkkk_refund-2</title><g id="_编组_" data-name="&lt;编组&gt;"><path id="_路径_" data-name="&lt;路径&gt;" class="cls-1" d="M50,84C24.595,84,4,77.99,4,70.577v16C4,93.99,24.595,100,50,100s46-6.01,46-13.423v-16C96,77.99,75.405,84,50,84Z" transform="translate(-4 -1.968)"/><path id="_路径_2" data-name="&lt;路径&gt;" class="cls-1" d="M50,61.15c-25.405,0-46-6.01-46-13.423v16C4,71.14,24.595,77.15,50,77.15s46-6.01,46-13.423v-16C96,55.14,75.405,61.15,50,61.15Z" transform="translate(-4 -1.968)"/><path id="_路径_3" data-name="&lt;路径&gt;" class="cls-1" d="M50,38.3c-25.405,0-46-6.01-46-13.423v16C4,48.29,24.595,54.3,50,54.3s46-6.01,46-13.423v-16C96,32.29,75.405,38.3,50,38.3Z" transform="translate(-4 -1.968)"/><ellipse id="_路径_4" data-name="&lt;路径&gt;" class="cls-1" cx="46" cy="14.77" rx="46" ry="14.77"/></g></svg>