<svg id="图层_1" data-name="图层 1" xmlns="http://www.w3.org/2000/svg" viewBox="0 0 92.181 100"><defs><style>.cls-1{fill:#e94b3a;}</style></defs><title>kkkk_refund</title><path id="refund" class="cls-1" d="M78.011,82.69a2.567,2.567,0,0,1-.558.424c-0.241.174-.473,0.368-0.717,0.544-0.016-.08-0.042-0.155-0.059-0.233a2.464,2.464,0,0,1-.566.115A2.606,2.606,0,0,1,73.5,80.934,2.562,2.562,0,0,1,74.7,78.8c-0.017-.026-0.033-0.056-0.05-0.082A40.826,40.826,0,1,0,48,86.91l-4.96-4.958a2.607,2.607,0,0,1,3.687-3.687h0l8.6,8.6a2.733,2.733,0,0,1,0,3.773l-8.6,8.6a2.606,2.606,0,1,1-3.687-3.685l3.5-3.5A46.088,46.088,0,1,1,78.011,82.69ZM54.394,64.43a3.475,3.475,0,0,1-6.949,0V59.218H40.5a3.475,3.475,0,0,1,0-6.949h6.949V47.057H40.5a3.475,3.475,0,0,1,0-6.949h5.825a3.815,3.815,0,0,1,.09-0.462l-7.818-7.818a3.475,3.475,0,0,1,4.828-5l0.085,0.085,7.413,7.41,7.415-7.413a3.475,3.475,0,1,1,5,4.828q-0.042.043-.085,0.085l-7.84,7.84a4.465,4.465,0,0,1,.111.443h5.825a3.475,3.475,0,0,1,0,6.949H54.394v5.212h6.949a3.475,3.475,0,0,1,0,6.949H54.394V64.43Z" transform="translate(-3.909)"/></svg>