<svg id="图层_1" data-name="图层 1" xmlns="http://www.w3.org/2000/svg" viewBox="0 0 99.996 90.07"><defs><style>.cls-1{fill:#929292;}</style></defs><title>kkkk_scan</title><path id="scan" class="cls-1" d="M95.368,81.127s0.025,13.908-13.153,13.908h-10.7a3.273,3.273,0,0,1,0-6.545h10.7a7.261,7.261,0,0,0,6.58-7.363l0.005-9.8a3.293,3.293,0,0,1,6.586,0Zm-91.929-9.8a3.293,3.293,0,0,1,6.586,0l0.005,9.8a7.261,7.261,0,0,0,6.58,7.363h10.7a3.273,3.273,0,0,1,0,6.545H16.61c-13.178,0-13.153-13.908-13.153-13.908ZM3.483,18.873S3.458,4.965,16.636,4.965h10.7a3.273,3.273,0,0,1,0,6.545h-10.7a7.261,7.261,0,0,0-6.58,7.363l-0.005,9.8a3.293,3.293,0,0,1-6.586,0Zm91.929,9.8a3.293,3.293,0,0,1-6.586,0l-0.005-9.8a7.261,7.261,0,0,0-6.58-7.363h-10.7a3.273,3.273,0,0,1,0-6.545h10.7c13.178,0,13.153,13.908,13.153,13.908ZM3.286,46.69H96.735a3.273,3.273,0,0,1,0,6.546H3.286a3.273,3.273,0,0,1-.022-6.546H3.286Z" transform="translate(-0.002 -4.965)"/></svg>