<svg id="图层_1" data-name="图层 1" xmlns="http://www.w3.org/2000/svg" viewBox="0 0 99.996 99.996"><defs><style>.cls-1{fill:#e94b3a;}</style></defs><title>kkkk_settings-active</title><path id="setting" class="cls-1" d="M87.5,62.5a12.5,12.5,0,0,0,0-25H85.331a37.516,37.516,0,0,0-1.5-3.651l1.525-1.527A12.5,12.5,0,0,0,67.677,14.647l-1.525,1.527A37.22,37.22,0,0,0,62.5,14.669V12.5a12.5,12.5,0,0,0-25,0v2.167a37.633,37.633,0,0,0-3.653,1.5l-1.525-1.525A12.5,12.5,0,0,0,14.647,32.323h0l1.525,1.525a37.037,37.037,0,0,0-1.5,3.653H12.5a12.5,12.5,0,0,0,0,25h2.167a37.037,37.037,0,0,0,1.5,3.653l-1.525,1.525A12.5,12.5,0,1,0,32.323,85.353l1.525-1.525a37.633,37.633,0,0,0,3.653,1.5V87.5a12.5,12.5,0,1,0,25,0V85.331a37.22,37.22,0,0,0,3.653-1.505l1.525,1.527A12.5,12.5,0,1,0,85.353,67.677l-1.525-1.529a37.29,37.29,0,0,0,1.5-3.649H87.5Zm-6.563,9.6a6.276,6.276,0,0,1,0,8.836,6.427,6.427,0,0,1-8.838,0l-4.812-4.813-2.064,1.155a31.25,31.25,0,0,1-6.7,2.765l-2.274.644V87.5a6.251,6.251,0,0,1-12.5,0V80.684l-2.273-.644a31.2,31.2,0,0,1-6.7-2.764l-2.064-1.155L27.9,80.933a6.427,6.427,0,0,1-8.838,0,6.276,6.276,0,0,1,0-8.836l4.812-4.813-1.156-2.064a31.188,31.188,0,0,1-2.762-6.7l-0.644-2.273H12.5a6.251,6.251,0,1,1-.213-12.5q0.107,0,.213,0h6.814l0.644-2.271a31.133,31.133,0,0,1,2.762-6.7l1.156-2.065L19.065,27.9a6.28,6.28,0,0,1,0-8.838,6.427,6.427,0,0,1,8.838,0l4.812,4.813,2.064-1.155a31.107,31.107,0,0,1,6.7-2.764l2.273-.644V12.5a6.251,6.251,0,1,1,12.5-.213q0,0.107,0,.213v6.814l2.274,0.644a31.064,31.064,0,0,1,6.7,2.765l2.064,1.155L72.1,19.065a6.427,6.427,0,0,1,8.838,0,6.28,6.28,0,0,1,0,8.838l-4.811,4.813,1.151,2.064a31.135,31.135,0,0,1,2.765,6.7l0.644,2.271H87.5a6.251,6.251,0,0,1,0,12.5H80.684l-0.644,2.273a31.174,31.174,0,0,1-2.765,6.7l-1.151,2.064ZM50,31.25A18.75,18.75,0,1,0,68.748,50v0A18.77,18.77,0,0,0,50,31.25ZM50,62.5A12.5,12.5,0,1,1,62.5,50h0A12.512,12.512,0,0,1,50,62.5Z" transform="translate(-0.002 -0.002)"/></svg>