<svg id="图层_1" data-name="图层 1" xmlns="http://www.w3.org/2000/svg" viewBox="0 0 82 98.851"><defs><style>.cls-1{fill:#6cc795;}</style></defs><title>kkkk_shield</title><path id="_复合路径_" data-name="&lt;复合路径&gt;" class="cls-1" d="M50,1.149C42,10.425,27,16.778,9,17.424V38c0,33.75,18.25,53.75,39.963,62h2.073C72.75,92,91,71.75,91,38V17.424C73,16.778,58,10.425,50,1.149Zm-7.187,41.1a68.721,68.721,0,0,0,8.927,3.858q8.547,3.4,11.423,5.371,5.9,4.084,5.9,10.213a12.5,12.5,0,0,1-5.6,10.666Q58.17,75.994,50,75.993q-10.818,0-16.869-8.321a10.968,10.968,0,0,1-2.194-6.581,2.85,2.85,0,0,1,3.026-2.875q1.89,0,2.874,3.1A11.723,11.723,0,0,0,41.83,68.2a14.214,14.214,0,0,0,7.943,2.269,18.022,18.022,0,0,0,9.3-2.193A7.264,7.264,0,0,0,63.163,61.7q0-3.631-4.236-5.9-5.145-2.042-10.288-4.16a57.185,57.185,0,0,1-10.364-5.22q-5.219-3.782-5.22-9.154,0-12.179,17.929-12.18,11.423,0,16.038,6.733a9.509,9.509,0,0,1,2.043,5.144q0,3.33-3.329,3.329a2.454,2.454,0,0,1-2.27-1.815q-3.4-7.944-12.482-7.943a21.865,21.865,0,0,0-7.489,1.135q-4.311,1.588-4.312,5.295Q39.183,40.062,42.813,42.254Z" transform="translate(-9 -1.149)"/></svg>