<svg id="图层_1" data-name="图层 1" xmlns="http://www.w3.org/2000/svg" viewBox="0 0 99.824 43"><defs><style>.cls-1{fill:#00aaef;}</style></defs><title>kkkk_sim</title><g id="_编组_" data-name="&lt;编组&gt;"><path id="_路径_" data-name="&lt;路径&gt;" class="cls-1" d="M24.631,50.754a13.219,13.219,0,0,0-2.871-2.343,32.545,32.545,0,0,0-3.29-1.749q-1.678-.77-3.29-1.46a21.8,21.8,0,0,1-2.887-1.476,7.251,7.251,0,0,1-2.032-1.8A3.872,3.872,0,0,1,9.5,39.539a4.648,4.648,0,0,1,.339-1.765,3.677,3.677,0,0,1,1.032-1.428,5,5,0,0,1,1.726-.93,7.811,7.811,0,0,1,2.419-.337,11.6,11.6,0,0,1,3.258.433,18.2,18.2,0,0,1,2.613.963q1.129,0.529,1.9.979a2.7,2.7,0,0,0,1.129.449,0.8,0.8,0,0,0,.565-0.193,1.262,1.262,0,0,0,.323-0.61,5.847,5.847,0,0,0,.161-1.059q0.048-.641.048-1.572,0-.834-0.032-1.4a6.2,6.2,0,0,0-.113-0.931,2.6,2.6,0,0,0-.194-0.594A2.344,2.344,0,0,0,24.244,31a5.382,5.382,0,0,0-1.323-.8,15.543,15.543,0,0,0-2.29-.867,20.4,20.4,0,0,0-2.774-.61,19.848,19.848,0,0,0-2.968-.225,19.572,19.572,0,0,0-5.435.738A12.8,12.8,0,0,0,5,31.468a10.774,10.774,0,0,0-3,3.755A11.747,11.747,0,0,0,.889,40.469a11.589,11.589,0,0,0,.774,4.46A11.024,11.024,0,0,0,3.68,48.155,13.158,13.158,0,0,0,6.5,50.5,29.708,29.708,0,0,0,9.76,52.246q1.677,0.77,3.258,1.46a21.017,21.017,0,0,1,2.823,1.476,7.675,7.675,0,0,1,2.016,1.8,3.868,3.868,0,0,1,.774,2.423,5.3,5.3,0,0,1-.452,2.214,4.426,4.426,0,0,1-1.306,1.669,6.216,6.216,0,0,1-2.081,1.043,9.615,9.615,0,0,1-2.774.369,14.656,14.656,0,0,1-4.145-.529A19.115,19.115,0,0,1,4.793,63,22.435,22.435,0,0,1,2.68,61.825,2.686,2.686,0,0,0,1.405,61.3a0.935,0.935,0,0,0-.565.176,1.2,1.2,0,0,0-.387.594,4.785,4.785,0,0,0-.21,1.091q-0.065.674-.064,1.669a10.924,10.924,0,0,0,.177,2.262,2.4,2.4,0,0,0,.6,1.2,6.823,6.823,0,0,0,1.371.963A14.309,14.309,0,0,0,4.7,70.3a22.885,22.885,0,0,0,3.274.85,21.518,21.518,0,0,0,4.016.353,20.962,20.962,0,0,0,6-.834,14.5,14.5,0,0,0,4.9-2.487,11.915,11.915,0,0,0,3.323-4.124,12.772,12.772,0,0,0,1.226-5.744,11.19,11.19,0,0,0-.774-4.348A10.913,10.913,0,0,0,24.631,50.754Z" transform="translate(-0.18 -28.5)"/><path id="_路径_2" data-name="&lt;路径&gt;" class="cls-1" d="M41.535,29.4a6.82,6.82,0,0,0-1.29-.257,18.033,18.033,0,0,0-2.065-.1,17.671,17.671,0,0,0-2.032.1,7.2,7.2,0,0,0-1.306.257,1.338,1.338,0,0,0-.671.417,0.854,0.854,0,0,0-.17.578V69.607a0.852,0.852,0,0,0,.17.578,1.4,1.4,0,0,0,.674.417,6.678,6.678,0,0,0,1.3.257,21.91,21.91,0,0,0,4.106,0,6.761,6.761,0,0,0,1.289-.257,2.847,2.847,0,0,0,.974-0.417A1.445,1.445,0,0,0,43,69.607V30.393a1.453,1.453,0,0,0-.491-0.578A2.873,2.873,0,0,0,41.535,29.4Z" transform="translate(-0.18 -28.5)"/><path id="_路径_3" data-name="&lt;路径&gt;" class="cls-1" d="M99.88,31.179a2.8,2.8,0,0,0-.568-1.059,2.722,2.722,0,0,0-1.01-.777A4.232,4.232,0,0,0,96.825,29h-5.71a7.918,7.918,0,0,0-2.1.36,3.953,3.953,0,0,0-1.565.878,5.466,5.466,0,0,0-1.161,1.538,8.847,8.847,0,0,0-.919,1.913L76.018,58H75.889L66.857,33.639a8.78,8.78,0,0,0-.9-2.072,4.213,4.213,0,0,0-1.29-1.381,5.053,5.053,0,0,0-1.839-.874A11.355,11.355,0,0,0,60.276,29H54.728a2.714,2.714,0,0,0-2.09.985A3.635,3.635,0,0,0,52,32.607v37a1,1,0,0,0-.055.578,0.9,0.9,0,0,0,.529.417,5.656,5.656,0,0,0,1.184.257,15.611,15.611,0,0,0,1.907.1,15.8,15.8,0,0,0,1.937-.1,6.625,6.625,0,0,0,1.235-.257,2.136,2.136,0,0,0,.874-0.417A1.352,1.352,0,0,0,60,69.607V36H59.631L71.309,69.666a1.117,1.117,0,0,0,.387.564,2.353,2.353,0,0,0,.79.41,5.7,5.7,0,0,0,1.274.245c0.516,0.053,1.14.075,1.871,0.075s1.355-.019,1.871-0.051a5.354,5.354,0,0,0,1.274-.21,2.049,2.049,0,0,0,.79-0.434,1.268,1.268,0,0,0,.419-0.6L92.083,36H92V69.607a1.024,1.024,0,0,0,.267.578,1.481,1.481,0,0,0,.682.417,6.2,6.2,0,0,0,1.244.257,16.3,16.3,0,0,0,1.945.1,16.563,16.563,0,0,0,1.973-.1,6.378,6.378,0,0,0,1.244-.257,0.98,0.98,0,0,0,.556-0.417A0.947,0.947,0,0,0,100,69.607v-37A4.614,4.614,0,0,0,99.88,31.179Z" transform="translate(-0.18 -28.5)"/></g></svg>