<svg xmlns="http://www.w3.org/2000/svg" xmlns:xlink="http://www.w3.org/1999/xlink" preserveAspectRatio="xMidYMid" width="47" height="47" viewBox="0 0 47 47">
  <defs>
    <style>
      .cls-1 {
        fill: #fff;
        stroke: #e94b3a;
        stroke-linejoin: round;
        stroke-width: 2px;
      }

      .cls-2 {
        fill: #e94b3a;
        fill-rule: evenodd;
      }
    </style>
  </defs>
  <g>
    <circle cx="23.5" cy="23.5" r="22.5" class="cls-1"/>
    <path d="M38.979,20.733 L31.525,20.733 C28.514,16.140 22.350,16.286 22.350,16.286 C16.401,16.286 13.749,20.653 13.749,20.653 L6.000,20.646 C6.502,12.918 22.493,13.005 22.493,13.005 C40.700,13.297 38.979,20.733 38.979,20.733 ZM10.215,24.302 C6.044,24.306 6.065,21.608 6.065,21.608 L13.186,21.608 C12.519,24.389 10.215,24.302 10.215,24.302 ZM22.708,17.380 C22.708,17.380 32.313,16.578 33.173,29.336 C33.173,29.336 33.890,34.002 29.016,34.002 C24.142,34.002 15.541,33.929 15.541,33.929 C15.541,33.929 11.670,34.221 12.028,29.847 C12.387,25.472 13.820,17.015 22.708,17.380 ZM22.626,28.993 C25.411,28.993 27.668,26.914 27.668,24.349 C27.668,21.784 25.411,19.705 22.626,19.705 C19.841,19.705 17.584,21.784 17.584,24.349 C17.584,26.914 19.841,28.993 22.626,28.993 ZM38.979,21.507 C38.979,21.507 39.047,24.349 34.959,24.418 C34.959,24.418 32.165,24.488 32.165,21.507 L38.979,21.507 Z" class="cls-2"/>
  </g>
</svg>
