<svg id="图层_1" data-name="图层 1" xmlns="http://www.w3.org/2000/svg" viewBox="0 0 99.997 92.59"><defs><style>.cls-1{fill:#fff;}</style></defs><title>kkkk_ticket</title><g id="_编组_" data-name="&lt;编组&gt;"><rect id="_路径_" data-name="&lt;路径&gt;" class="cls-1" x="2.998" y="22.295" width="95" height="6"/><rect id="_路径_2" data-name="&lt;路径&gt;" class="cls-1" x="2.998" y="43.295" width="95" height="6"/><path id="bd-wallet" class="cls-1" d="M100,68.518h0V83.8a12.513,12.513,0,0,1-12.5,12.5h-75A12.513,12.513,0,0,1,0,83.8V16.2a12.513,12.513,0,0,1,12.5-12.5h75A12.513,12.513,0,0,1,100,16.2V31.482h0V68.518Zm-5.555-51.85A8.42,8.42,0,0,0,87.036,9.26H12.964a8.418,8.418,0,0,0-7.407,7.407V83.332a8.418,8.418,0,0,0,7.407,7.407H87.036a8.42,8.42,0,0,0,7.407-7.407V16.668Z" transform="translate(-0.002 -3.705)"/><rect id="_矩形_" data-name="&lt;矩形&gt;" class="cls-1" x="14.665" y="68.803" width="18.607" height="6" rx="3" ry="3"/><rect id="_矩形_2" data-name="&lt;矩形&gt;" class="cls-1" x="36.272" y="68.803" width="8.352" height="6" rx="3" ry="3"/></g></svg>