<svg id="图层_1" data-name="图层 1" xmlns="http://www.w3.org/2000/svg" viewBox="0 0 93 85.245"><defs><style>.cls-1{fill:#f87f7f;}</style></defs><title>kkkk_transfer</title><g id="_编组_" data-name="&lt;编组&gt;"><g id="_编组_2" data-name="&lt;编组&gt;"><g id="_编组_3" data-name="&lt;编组&gt;"><path id="_路径_" data-name="&lt;路径&gt;" class="cls-1" d="M92.5,45c2.2,0,2.645-.985.989-2.433L54.011,8.133C52.355,6.684,51,7.4,51,9.6V22.4c0,2.2-1.8,3.6-4,3.6H7c-2.2,0-4,2.2-4,4.4v11C3,43.6,4.8,45,7,45H92.5Z" transform="translate(-3 -7.378)"/></g><g id="_编组_4" data-name="&lt;编组&gt;"><path id="_路径_2" data-name="&lt;路径&gt;" class="cls-1" d="M7,55c-2.2,0-2.645.985-.989,2.433L45.239,91.867C46.9,93.316,48,92.6,48,90.4V77.6c0-2.2,2.3-3.6,4.5-3.6h40c2.2,0,3.5-2.2,3.5-4.4v-11A3.284,3.284,0,0,0,92.5,55H7Z" transform="translate(-3 -7.378)"/></g></g></g></svg>