<svg id="图层_1" data-name="图层 1" xmlns="http://www.w3.org/2000/svg" viewBox="0 0 93 95"><defs><style>.cls-1{fill:#00aaef;}</style></defs><title>kkkk_version</title><g id="_编组_" data-name="&lt;编组&gt;"><path id="_路径_" data-name="&lt;路径&gt;" class="cls-1" d="M77,16V14.5A12.335,12.335,0,0,0,64.7,2h-49A12.682,12.682,0,0,0,3,14.5v51A12.684,12.684,0,0,0,15.705,78H17V28.5A12.684,12.684,0,0,1,29.707,16H77Z" transform="translate(-3 -2)"/><path id="_复合路径_" data-name="&lt;复合路径&gt;" class="cls-1" d="M96,33.652A12.472,12.472,0,0,0,83.718,21H34.282A12.472,12.472,0,0,0,22,33.652v50.7A12.472,12.472,0,0,0,34.282,97H83.718A12.472,12.472,0,0,0,96,84.348v-50.7ZM38.427,33H73.463a4.012,4.012,0,0,1,0,8H38.427A4.012,4.012,0,0,1,38.427,33ZM62.5,85H38.427a3.506,3.506,0,1,1,0-7H62.5A3.506,3.506,0,1,1,62.5,85ZM84.425,63h-46a4.012,4.012,0,0,1,0-8h46A4.012,4.012,0,0,1,84.425,63Z" transform="translate(-3 -2)"/></g></svg>