<svg id="图层_1" data-name="图层 1" xmlns="http://www.w3.org/2000/svg" viewBox="0 0 99.997 92.59"><defs><style>.cls-1{fill:#000;}</style></defs><title>kkkk_wallet</title><path id="bd-wallet" class="cls-1" d="M100,68.518h0V83.8a12.513,12.513,0,0,1-12.5,12.5h-75A12.513,12.513,0,0,1,0,83.8V16.2a12.513,12.513,0,0,1,12.5-12.5h75A12.513,12.513,0,0,1,100,16.2V31.482h0V68.518ZM94.443,37.037H59.259a12.963,12.963,0,0,0,0,25.925H94.443V37.037Zm0-20.37A8.42,8.42,0,0,0,87.036,9.26H12.964a8.418,8.418,0,0,0-7.407,7.407V83.332a8.418,8.418,0,0,0,7.407,7.407H87.036a8.42,8.42,0,0,0,7.407-7.407V68.518H59.259a18.518,18.518,0,1,1,0-37.036H94.443V16.668ZM55.555,50a5.555,5.555,0,1,1,5.555,5.555A5.555,5.555,0,0,1,55.555,50Z" transform="translate(-0.002 -3.705)"/></svg>