<svg id="图层_1" data-name="图层 1" xmlns="http://www.w3.org/2000/svg" viewBox="0 0 99.995 99.995"><defs><style>.cls-1{fill:#e94b3a;}</style></defs><title>kkkk_warning</title><path id="warning" class="cls-1" d="M50,100a50,50,0,1,1,50-50h0A50,50,0,0,1,50,100ZM50,5.663A44.337,44.337,0,1,0,94.337,50h0A44.337,44.337,0,0,0,50,5.663ZM50.943,75.47A3.773,3.773,0,0,1,47.17,71.7V43.4a3.773,3.773,0,1,1,7.547,0V71.7A3.773,3.773,0,0,1,50.943,75.47Zm0-41.507a3.773,3.773,0,1,1,3.773-3.773A3.773,3.773,0,0,1,50.943,33.963Z" transform="translate(-0.002 -0.002)"/></svg>