<svg id="图层_1" data-name="图层 1" xmlns="http://www.w3.org/2000/svg" viewBox="0 0 100 100"><defs><style>.cls-1{fill:#45c01a;}.cls-2{fill:#fff;}</style></defs><title>kkkk_wechat</title><circle class="cls-1" cx="50" cy="50" r="50"/><g id="_编组_" data-name="&lt;编组&gt;"><path class="cls-2" d="M53.733,29.879A23.354,23.354,0,0,0,34.6,28.386a19.468,19.468,0,0,0-10.035,7.9,14.793,14.793,0,0,0-1.841,11.348,17.363,17.363,0,0,0,7.531,10.191c-0.675,1.962-1.34,3.923-1.967,5.9,2.268-1.178,4.509-2.406,6.768-3.6a25.109,25.109,0,0,0,8.447,1.2A13.817,13.817,0,0,1,47.538,46.3a19.972,19.972,0,0,1,15-4.925A17.482,17.482,0,0,0,53.733,29.879ZM38.3,38.813a2.837,2.837,0,1,1-3.7-3.349A2.858,2.858,0,0,1,38.3,38.813Zm13.987-.56a2.833,2.833,0,1,1-3.814-2.769A2.853,2.853,0,0,1,52.284,38.253Z"/><path class="cls-2" d="M76.645,51.728a15.272,15.272,0,0,0-7.137-7.266,19.647,19.647,0,0,0-17.613.065,14.628,14.628,0,0,0-7.805,9.614,12.356,12.356,0,0,0,1.57,9.148,16.856,16.856,0,0,0,11.478,7.487,20.992,20.992,0,0,0,10.017-.663c1.938,0.757,3.676,1.977,5.557,2.878-0.483-1.626-1-3.246-1.555-4.848a15.846,15.846,0,0,0,5.181-5.723A12.4,12.4,0,0,0,76.645,51.728ZM57.73,52.945a2.272,2.272,0,1,1-2.91-2.936A2.294,2.294,0,0,1,57.73,52.945ZM68.8,53.153a2.291,2.291,0,0,1-3.611.619,3.593,3.593,0,0,1-.8-1.685,2.563,2.563,0,0,1,2.162-2.2A2.292,2.292,0,0,1,68.8,53.153Z"/></g></svg>