<svg id="图层_1" data-name="图层 1" xmlns="http://www.w3.org/2000/svg" viewBox="0 0 100 100"><defs><style>.cls-1{fill:#000;}</style></defs><title>kkkk_yolly-life-inactive</title><g id="_编组_" data-name="&lt;编组&gt;"><path id="_复合路径_" data-name="&lt;复合路径&gt;" class="cls-1" d="M50,0a50,50,0,1,0,50,50A50,50,0,0,0,50,0Zm0,94A44,44,0,1,1,94,50,44,44,0,0,1,50,94Z"/><path id="_路径_" data-name="&lt;路径&gt;" class="cls-1" d="M36.623,54.277A35.025,35.025,0,0,1,24.358,67.651,23.323,23.323,0,0,1,28.466,72.7c5.993-4.606,9.545-8.713,13.651-15.816Z"/><path id="_路径_2" data-name="&lt;路径&gt;" class="cls-1" d="M73,51.225V44.9a53.619,53.619,0,0,1-6.075.1H54V38.017C54,36.962,53.717,35,53.827,34H47.057C47.278,35,47,35.686,47,38.072V45H34.293a70.923,70.923,0,0,0,3.052-13.231c16.482-.666,22.31-1.149,31.411-3.091l-4.384-5.348a56.134,56.134,0,0,1-10.711,2.127A179.658,179.658,0,0,1,35.014,26.52c-1.109,0-1.831-.051-3.5-0.163a58.5,58.5,0,0,1-3.163,17.1,3.361,3.361,0,0,1-2.5,2.277l1.165,5.632A51.78,51.78,0,0,1,33.017,51H47V67.818c0,1.165-.138,1.332-1.969,1.332a55.72,55.72,0,0,1-6.645-.556,20.918,20.918,0,0,1,1.589,6.216,39.532,39.532,0,0,0,4.513.222,22.764,22.764,0,0,0,6.2-.555C52.8,73.812,54,72.2,54,69.428V51H67.035A50.72,50.72,0,0,1,73,51.225Z"/><path id="_路径_3" data-name="&lt;路径&gt;" class="cls-1" d="M63.15,54.222L57.49,57.5A72.651,72.651,0,0,1,70.032,72.591l5.55-4.384A120.568,120.568,0,0,0,63.15,54.222Z"/></g></svg>