<svg id="图层_1" data-name="图层 1" xmlns="http://www.w3.org/2000/svg" viewBox="0 0 100 100"><defs><style>.cls-1{fill:#e94b3a;}.cls-2{fill:#fff;}</style></defs><title>kkkk_yolly</title><circle id="_路径_" data-name="&lt;路径&gt;" class="cls-1" cx="50" cy="50" r="50"/><g id="矩形_2_拷贝" data-name="矩形 2 拷贝"><g id="_编组_" data-name="&lt;编组&gt;"><path id="_复合路径_" data-name="&lt;复合路径&gt;" class="cls-2" d="M68.49,34.8a2.3,2.3,0,0,0,2.3-2.3V32a2.3,2.3,0,0,0-2.3-2.3H35.855a8.863,8.863,0,0,0-2.965.5,4.822,4.822,0,0,0-1.939,1.307,5.825,5.825,0,0,0-1.74,4.146v9.989a7.086,7.086,0,0,0,.143,1.511,4.635,4.635,0,0,0,.684,1.893,6.191,6.191,0,0,0,5.6,2.972H48.285V62.645a2.957,2.957,0,0,1-.361,1.657,2.923,2.923,0,0,1-2.425.893H42.441a2.3,2.3,0,0,0-2.3,2.3V68a2.3,2.3,0,0,0,2.3,2.3h3.7A8.234,8.234,0,0,0,52.377,66.6,9.456,9.456,0,0,0,53.429,61.8V52.019H68.86V51.982a2.294,2.294,0,0,0,1.929-2.262v-0.5a2.294,2.294,0,0,0-1.929-2.262V46.92H53.429V34.8H68.49Zm-20.2,12.113H36.926a2.971,2.971,0,0,1-2.253-.695,1.981,1.981,0,0,1-.533-1.643V37.142a2.478,2.478,0,0,1,.693-1.752,2.831,2.831,0,0,1,2.093-.586H48.285V46.918h0ZM32.033,56.057h-0.5a2.321,2.321,0,0,0-2.321,2.321v9.6a2.321,2.321,0,0,0,2.321,2.321h0.5a2.321,2.321,0,0,0,2.321-2.321v-9.6A2.32,2.32,0,0,0,32.033,56.057Zm36.435,0h-0.5a2.321,2.321,0,0,0-2.321,2.321v9.6a2.321,2.321,0,0,0,2.321,2.321h0.5a2.321,2.321,0,0,0,2.321-2.321v-9.6A2.321,2.321,0,0,0,68.468,56.057Z"/></g></g></svg>