<svg id="图层_1" data-name="图层 1" xmlns="http://www.w3.org/2000/svg" viewBox="0 0 99.997 99.997"><defs><style>.cls-1{fill:#e94b3a;}</style></defs><title>kkkk_无名氏</title><path id="无名氏" class="cls-1" d="M87.5,100h-75A12.513,12.513,0,0,1,0,87.5v-75A12.513,12.513,0,0,1,12.5,0h75A12.513,12.513,0,0,1,100,12.5v75A12.513,12.513,0,0,1,87.5,100Zm6.944-87.034a8.42,8.42,0,0,0-7.407-7.407H12.964a8.418,8.418,0,0,0-7.407,7.407V87.036a8.418,8.418,0,0,0,7.407,7.407H87.036a8.42,8.42,0,0,0,7.407-7.407V12.964ZM61.166,50.582a10.555,10.555,0,0,1,4.459,9.355,11.864,11.864,0,0,1-5.452,10.716A17.037,17.037,0,0,1,51.852,73.1V75a2.75,2.75,0,0,1-.907,2.037v1.482H47.593V77.29A2.735,2.735,0,0,1,46.3,75V72.977c-4.867-.591-7.389-1.654-9.726-3.876-2.222-2.222-3.283-4.646-4.026-9.292L37.687,59a10.218,10.218,0,0,0,2.663,7.124A9.392,9.392,0,0,0,46.3,68.874V50.595a22.222,22.222,0,0,1-7.742-2.924,10.522,10.522,0,0,1-4.709-9.107,11.377,11.377,0,0,1,5.205-9.85A15.537,15.537,0,0,1,46.3,26.278v-3.13a2.778,2.778,0,0,1,5.555,0V26.3a13.852,13.852,0,0,1,9,3.846A12.777,12.777,0,0,1,64.7,37.825l-5.017.926a8.951,8.951,0,0,0-2.913-6.009,8.565,8.565,0,0,0-4.915-2.306V47.02C56.831,48.209,59.181,49.122,61.166,50.582ZM57.448,66.937A8.315,8.315,0,0,0,60.67,60a7.126,7.126,0,0,0-2.911-6.133,16.9,16.9,0,0,0-5.907-2.126V68.988A10.689,10.689,0,0,0,57.448,66.937ZM41.522,32.308a7.668,7.668,0,0,0-2.913,6.07,6.79,6.79,0,0,0,4.4,6.505,16.913,16.913,0,0,0,3.281,1.065V30.464a9.815,9.815,0,0,0-4.763,1.844H41.522Z" transform="translate(-0.002 -0.002)"/></svg>