<?xml version="1.0" encoding="utf-8"?>
<!-- Generator: Adobe Illustrator 19.0.0, SVG Export Plug-In . SVG Version: 6.00 Build 0)  -->
<svg version="1.1" id="图层_1" xmlns="http://www.w3.org/2000/svg" xmlns:xlink="http://www.w3.org/1999/xlink" x="0px" y="0px"
	 viewBox="0 0 1001 1001" style="enable-background:new 0 0 1001 1001;" xml:space="preserve">
<style type="text/css">
	.st0{fill:#FFB359;}
</style>
<path id="分账管理" class="st0" d="M500.5,0C224.08,0,0,224.08,0,500.5C0,776.92,224.08,1001,500.5,1001S1001,776.92,1001,500.5
	C1001,224.08,776.92,0,500.5,0z M680.68,581c27.64,0,50.05,22.36,50.05,50c0,27.64-22.41,50-50.05,50H570.57l0.31,77.68
	c0,38.7-31.37,69.91-70.07,69.91s-70.07-31.2-70.07-69.9L430.43,681H320.32c-27.64,0-50.05-22.36-50.05-50
	c0-27.64,22.41-50,50.05-50H430v-80H320.32c-27.64,0-50.05-22.36-50.05-50c0-27.64,22.41-50,50.05-50h109.4L287.15,258.03
	c-19.55-19.55-19.55-51.49,0-71.03s51.24-19.62,70.78-0.07L500.5,329.47l142.57-142.57c19.55-19.55,51.24-19.53,70.78,0.02
	c19.55,19.55,19.55,51.58,0,71.13L571.28,401h109.4c27.64,0,50.05,22.36,50.05,50c0,27.64-22.41,50-50.05,50H570v80H680.68z"/>
</svg>
