<?xml version="1.0" encoding="utf-8"?>
<!-- Generator: Adobe Illustrator 19.0.0, SVG Export Plug-In . SVG Version: 6.00 Build 0)  -->
<svg version="1.1" id="图层_1" xmlns="http://www.w3.org/2000/svg" xmlns:xlink="http://www.w3.org/1999/xlink" x="0px" y="0px"
	 viewBox="0 0 1001 1001" style="enable-background:new 0 0 1001 1001;" xml:space="preserve">
<style type="text/css">
	.st0{fill:#FFB359;}
	.st1{fill:#E88A3D;}
	.st2{fill:#E94B3A;}
	.st3{fill:#FFFFFF;}
</style>
<g id="XMLID_252_">
	<path id="bd-wallet_3_" class="st0" d="M1001,685.87L1001,685.87V838.8c-0.07,69.07-56.05,125.05-125.13,125.13H125.13
		C56.05,963.85,0.07,907.88,0,838.8V162.2C0.07,93.12,56.05,37.15,125.13,37.07h750.75c69.07,0.07,125.05,56.05,125.13,125.13
		v152.93l0,0V685.87z"/>
	<path id="XMLID_6_" class="st1" d="M908.81,622.67H94.7c-5.29,0-9.63-4.33-9.63-9.63V246.9c0-5.29,4.33-9.63,9.63-9.63h814.11
		c5.29,0,9.63,4.33,9.63,9.63v366.15C918.43,618.34,914.1,622.67,908.81,622.67z"/>
	<path id="bd-wallet_4_" class="st2" d="M1001,462.51v223.36V838.8c-0.07,69.07-56.05,125.05-125.13,125.13H125.13
		C56.05,963.85,0.07,907.88,0,838.8V462.51H1001z"/>
	<path id="XMLID_255_" class="st3" d="M330.06,775.41H149.8c-1.66,0-3-1.34-3-3v-54.06c0-1.66,1.34-3,3-3h180.26c1.66,0,3,1.34,3,3
		v54.06C333.06,774.06,331.72,775.41,330.06,775.41z"/>
	<path id="XMLID_254_" class="st3" d="M443.69,775.41h-77.6c-1.66,0-3-1.34-3-3v-54.06c0-1.66,1.34-3,3-3h77.6c1.66,0,3,1.34,3,3
		v54.06C446.69,774.06,445.35,775.41,443.69,775.41z"/>
</g>
</svg>
