<?xml version="1.0" encoding="utf-8"?>
<!-- Generator: Adobe Illustrator 19.0.0, SVG Export Plug-In . SVG Version: 6.00 Build 0)  -->
<svg version="1.1" id="图层_1" xmlns="http://www.w3.org/2000/svg" xmlns:xlink="http://www.w3.org/1999/xlink" x="0px" y="0px"
	 viewBox="0 0 1001 1001" style="enable-background:new 0 0 1001 1001;" xml:space="preserve">
<style type="text/css">
	.st0{fill:#00AAEF;}
</style>
<g id="_编组_">
	<path class="st0" d="M212.21,807.51C43.93,807.51-5.8,675.38,77.39,603.16c27.65-24.44,78.44-36.32,105.39-39.04
		c99.93-9.84,192.37,28.14,301.56,81.3C407.5,745.21,309.82,807.51,212.21,807.51L212.21,807.51z M810.1,655.36
		c-43.23-14.47-101.39-36.55-165.96-59.76c40.61-71.12,70.98-147.62,90.2-227.23H521.2v-76.62h261.08v-42.72H521.2V121.46H414.74
		c-10-0.35-18.39,7.47-18.74,17.47c-0.01,0.3-0.01,0.61-0.01,0.91v109.19H131.94v42.72H396v76.54H177.98v42.72h422.85
		c-15.01,51.47-35.46,101.2-60.99,148.35c-137.08-45.04-283.51-81.77-375.5-59.22c-58.75,14.47-96.6,40.23-118.92,67.3
		c-102.06,123.9-28.84,312.11,186.82,312.11c127.58,0,250.41-70.97,345.58-187.74c142.03,68.12,423.19,185,423.19,185V710.21
		c0,0-35.25-2.84-190.94-54.83l0,0L810.1,655.36z"/>
</g>
</svg>
