<?xml version="1.0" encoding="utf-8"?>
<!-- Generator: Adobe Illustrator 19.0.0, SVG Export Plug-In . SVG Version: 6.00 Build 0)  -->
<svg version="1.1" id="图层_1" xmlns="http://www.w3.org/2000/svg" xmlns:xlink="http://www.w3.org/1999/xlink" x="0px" y="0px"
	 viewBox="0 0 1001 1001" style="enable-background:new 0 0 1001 1001;" xml:space="preserve">
<style type="text/css">
	.st0{fill-rule:evenodd;clip-rule:evenodd;fill:#FFB359;}
</style>
<path id="XMLID_1_" class="st0" d="M0,997.76V642.64h357.5v71.02h286v-71.02H1001v355.12H0z M429,642.64V500.59h143v142.05H429z
	 M643.5,429.57h-286v71.02H0v-284.1h214.5V74.45c0-78.46-7.48-71.02,71.5-71.02h429c78.98,0,71.5-7.43,71.5,71.02v142.04H1001v284.1
	H643.5V429.57z M643.5,74.45h-286c-78.98,0-71.5,63.6-71.5,142.04h429C715,138.04,722.48,74.45,643.5,74.45z"/>
</svg>
