<?xml version="1.0" encoding="utf-8"?>
<!-- Generator: Adobe Illustrator 19.2.0, SVG Export Plug-In . SVG Version: 6.00 Build 0)  -->
<svg version="1.1" id="图层_1" xmlns="http://www.w3.org/2000/svg" xmlns:xlink="http://www.w3.org/1999/xlink" x="0px" y="0px"
	 viewBox="0 0 100 68" style="enable-background:new 0 0 100 68;" xml:space="preserve">
<style type="text/css">
	.st0{fill:#E94B3A;}
</style>
<title>a_card</title>
<g id="_编组_">
	<path id="_路径_" class="st0" d="M60.679,22.651c-0.46-0.409-1.051-0.64-1.667-0.651h-0.939c-0.617,0.01-1.21,0.241-1.671,0.651
		c-0.756,0.565-0.911,1.636-0.346,2.392c0.098,0.131,0.215,0.248,0.346,0.346c0.471,0.389,1.061,0.604,1.671,0.611h0.939
		c0.607-0.001,1.195-0.209,1.667-0.59c0.426-0.328,0.679-0.833,0.686-1.371C61.356,23.497,61.104,22.987,60.679,22.651z"/>
	<path id="_路径_2" class="st0" d="M76.8,22.055c-0.458,0.065-0.874,0.298-1.168,0.655c-0.434,0.439-0.663,1.04-0.632,1.656v8.021
		c-0.032,0.616,0.197,1.217,0.629,1.656c0.301,0.362,0.725,0.598,1.191,0.664c1.395,0.118,2.699-0.701,3.2-2.008
		c0.552-1.356,0.829-2.807,0.817-4.271c0.012-1.487-0.262-2.963-0.808-4.347C79.537,22.751,78.211,21.92,76.8,22.055z"/>
	<path id="_路径_3" class="st0" d="M42.1,22.595c-0.464-0.394-1.056-0.605-1.665-0.595h-0.95c-0.609-0.011-1.2,0.201-1.664,0.595
		c-0.429,0.329-0.683,0.837-0.686,1.378c0.011,0.542,0.263,1.052,0.686,1.391c0.457,0.411,1.05,0.637,1.664,0.636h0.95
		c0.613,0.002,1.206-0.222,1.664-0.629c0.421-0.335,0.67-0.841,0.679-1.379C42.778,23.447,42.528,22.932,42.1,22.595z"/>
	<path id="_复合路径_" class="st0" d="M94.913,0H5.048C2.256,0.004-0.004,2.27,0,5.062C0,5.07,0,5.077,0,5.085V46h100V5.085
		C99.997,2.277,97.721,0.002,94.913,0z M19.738,34.17c0.433,0.486,1.039,0.784,1.688,0.83h4.429c0.639-0.061,1.278,0.111,1.8,0.485
		c0.464,0.338,0.736,0.879,0.732,1.453c0.006,0.584-0.266,1.135-0.732,1.486c-0.51,0.405-1.15,0.61-1.8,0.576h-8.467
		c-0.653,0.007-1.278-0.267-1.716-0.752c-0.466-0.479-0.71-1.132-0.671-1.8v-16.1c-0.06-1.238,0.895-2.29,2.133-2.35
		c0.085-0.004,0.17-0.003,0.254,0.002H25.9c0.652-0.057,1.303,0.117,1.839,0.491c0.476,0.351,0.755,0.909,0.749,1.5
		c-0.002,0.577-0.28,1.117-0.749,1.453C27.21,21.839,26.559,22.036,25.9,22h-4.474c-0.633,0.007-1.239,0.26-1.688,0.707
		c-0.469,0.444-0.736,1.061-0.738,1.707v7.973C19.009,33.054,19.273,33.692,19.738,34.17z M47,36.409
		c0.023,0.659-0.192,1.304-0.606,1.817c-0.351,0.483-0.91,0.77-1.507,0.774c-0.545,0.008-1.061-0.247-1.387-0.684
		c-0.374-0.456-0.553-1.041-0.5-1.628v-4.149c-0.116-1.361-1.203-2.437-2.565-2.539h-0.95c-0.653,0.035-1.268,0.322-1.714,0.8
		c-0.47,0.459-0.746,1.082-0.771,1.739v3.87c0.033,0.65-0.159,1.292-0.544,1.817c-0.332,0.483-0.879,0.772-1.465,0.774
		c-0.581-0.001-1.122-0.292-1.443-0.776c-0.39-0.522-0.584-1.164-0.548-1.815V20.352c-0.032-0.647,0.224-1.276,0.7-1.716
		c0.462-0.456,1.1-0.688,1.747-0.636h9.034c0.662-0.057,1.316,0.175,1.794,0.636c0.486,0.435,0.751,1.064,0.725,1.716V36.409z
		 M65.221,39.068c-0.625,0.357-1.406,0.282-1.952-0.187c-0.595-0.488-1.097-1.08-1.481-1.747c-0.472-0.781-0.888-1.594-1.246-2.434
		c-0.4-0.9-0.763-1.691-1.108-2.387c-0.243-0.552-0.645-1.019-1.154-1.343c-0.366-0.258-0.795-0.413-1.242-0.447
		c-0.318,0.027-0.601,0.213-0.752,0.495c-0.267,0.465-0.368,1.007-0.286,1.537v4.015c-0.037,0.665-0.301,1.298-0.747,1.792
		c-0.383,0.478-0.963,0.757-1.576,0.756c-0.674,0.007-1.32-0.267-1.783-0.756c-0.492-0.479-0.807-1.111-0.894-1.792V20.462
		c0.08-0.699,0.437-1.336,0.991-1.77c0.573-0.469,1.296-0.715,2.036-0.692h9.026c0.735-0.03,1.455,0.217,2.018,0.692
		c0.541,0.436,0.877,1.077,0.929,1.77v7.182c-0.031,0.606-0.239,1.19-0.6,1.679c-0.26,0.376-0.617,0.676-1.032,0.868
		c-0.39,0.067-0.652,0.437-0.586,0.827c0.084,0.418,0.227,0.822,0.424,1.2c0.376,0.755,0.953,1.919,1.751,3.49
		S66.5,38.409,65.221,39.068z M85,28.284v1.3c0.017,0.512,0.006,1.025-0.032,1.536c-0.075,2.013-0.725,3.963-1.875,5.617
		C81.979,38.248,80.142,39,77.543,39h-4.334c-0.626,0.003-1.22-0.272-1.622-0.752c-0.439-0.492-0.652-1.144-0.588-1.8v-16.1
		c-0.068-0.631,0.147-1.26,0.588-1.716c0.415-0.448,1.013-0.681,1.622-0.632h4.334c2.6,0,4.464,0.644,5.579,2.171
		c1.138,1.643,1.778,3.579,1.846,5.576c0.038,0.458,0.049,0.918,0.032,1.377V28.284z"/>
	<path id="_路径_4" class="st0" d="M0,62.914C-0.017,65.706,2.234,67.983,5.026,68c0.007,0,0.015,0,0.022,0h89.865
		c2.808-0.003,5.084-2.278,5.087-5.086V52H0V62.914z"/>
</g>
</svg>
