<?xml version="1.0" encoding="utf-8"?>
<!-- Generator: Adobe Illustrator 19.2.0, SVG Export Plug-In . SVG Version: 6.00 Build 0)  -->
<svg version="1.1" id="图层_1" xmlns="http://www.w3.org/2000/svg" xmlns:xlink="http://www.w3.org/1999/xlink" x="0px" y="0px"
	 viewBox="0 0 94.601 100" style="enable-background:new 0 0 94.601 100;" xml:space="preserve">
<style type="text/css">
	.st0{fill:#09BB07;}
</style>
<title>a_chart</title>
<g id="_编组_">
	<path id="_矩形_" class="st0" d="M8.233,99.206H0l0,0V3.72C0,1.666,1.665,0,3.72,0c0,0,0,0,0,0h0.793
		c2.054,0,3.72,1.666,3.72,3.72l0,0V99.206L8.233,99.206z"/>
	<path id="_矩形_2" class="st0" d="M35.959,81.838H20.668l0,0V43.81c0-2.054,1.666-3.72,3.72-3.72c0,0,0,0,0,0h7.85
		c2.055,0,3.72,1.666,3.72,3.72l0,0L35.959,81.838L35.959,81.838L35.959,81.838z"/>
	<path id="_矩形_3" class="st0" d="M57.454,81.839H42.163l0,0v-69.45c0-2.054,1.666-3.72,3.72-3.72c0,0,0,0,0,0h7.85
		c2.055,0,3.72,1.665,3.72,3.72l0,0L57.454,81.839L57.454,81.839z"/>
	<path id="_矩形_4" class="st0" d="M78.948,81.838H63.657l0,0V31.544c0-2.054,1.665-3.72,3.72-3.72l0,0h7.85
		c2.054,0,3.72,1.665,3.72,3.72l0,0L78.948,81.838L78.948,81.838L78.948,81.838z"/>
	<path id="_矩形_5" class="st0" d="M0,100v-8.233l0,0h90.881c2.055,0,3.72,1.665,3.72,3.72c0,0,0,0,0,0v0.796
		c0,2.054-1.665,3.72-3.72,3.72l0,0H0l0,0V100z"/>
</g>
</svg>
