<?xml version="1.0" encoding="utf-8"?>
<!-- Generator: Adobe Illustrator 19.0.0, SVG Export Plug-In . SVG Version: 6.00 Build 0)  -->
<svg version="1.1" id="图层_1" xmlns="http://www.w3.org/2000/svg" xmlns:xlink="http://www.w3.org/1999/xlink" x="0px" y="0px"
	 viewBox="0 0 1001 1001" style="enable-background:new 0 0 1001 1001;" xml:space="preserve">
<style type="text/css">
	.st0{fill:#00AAEF;}
</style>
<g id="XMLID_20_">
	<path id="XMLID_21_" class="st0" d="M975.08,814.84L763.48,691l-60.77,96.88c0,0-204.15-3.93-352.05-236.34
		c-147.9-232.41-73.14-238.92-73.14-238.92c17.59-4.37,62.48-16.41,62.48-16.41L191.06,7.08c0,0-245.1,134.89-180.09,318.55
		C75.98,509.28,204.38,655.56,327.9,779.08c123.52,123.52,396.33,300.68,541.22,167.4C1014.01,813.21,975.08,814.84,975.08,814.84z"
		/>
	<path id="XMLID_26_" class="st0" d="M941.65,563H1001C986,282,767,51.01,476,32.47v59.38C736,110.2,926.97,314,941.65,563z"/>
	<path id="XMLID_27_" class="st0" d="M782.21,563h57.68C816.37,376,666,222.71,476,199.19v57.68C634,279.66,759.43,407,782.21,563z"
		/>
	<path id="XMLID_28_" class="st0" d="M635.29,563h57.74C653.93,469,575,392.35,476,359.12v56.1C545,443.3,602.26,501,635.29,563z"/>
</g>
</svg>
