<svg id="图层_1" data-name="图层 1" xmlns="http://www.w3.org/2000/svg" viewBox="0 0 100 68"><defs><style>.cls-1{fill:#ffb359;}</style></defs><title>a_credit-card2</title><g id="_编组_" data-name="&lt;编组&gt;"><path id="_路径_" data-name="&lt;路径&gt;" class="cls-1" d="M100,32V24.284A8.556,8.556,0,0,0,91.753,16H7.509C3.158,16,0,19.933,0,24.284V32H100Z" transform="translate(0 -16)"/><path id="_复合路径_" data-name="&lt;复合路径&gt;" class="cls-1" d="M0,47V75.716C0,80.067,3.158,84,7.508,84H91.753A8.556,8.556,0,0,0,100,75.716V47H0ZM42,60H57v6H42V60ZM25,60H40v6H25V60ZM8,60H22v6H8V60ZM74,75H8V68H74v7Zm0-9H60V60H74v6Z" transform="translate(0 -16)"/></g></svg>