<?xml version="1.0" encoding="utf-8"?>
<!-- Generator: Adobe Illustrator 19.2.0, SVG Export Plug-In . SVG Version: 6.00 Build 0)  -->
<svg version="1.1" id="图层_1" xmlns="http://www.w3.org/2000/svg" xmlns:xlink="http://www.w3.org/1999/xlink" x="0px" y="0px"
	 viewBox="0 0 99.997 99.997" style="enable-background:new 0 0 99.997 99.997;" xml:space="preserve">
<style type="text/css">
	.st0{fill:#FFFFFF;}
</style>
<title>icon_无名氏</title>
<path id="无名氏" class="st0" d="M87.498,99.998h-75c-6.901-0.007-12.493-5.599-12.5-12.5v-75
	c0.007-6.901,5.599-12.493,12.5-12.5h75c6.901,0.007,12.493,5.599,12.5,12.5v75C99.991,94.399,94.399,99.991,87.498,99.998z
	 M94.442,12.964c-0.446-3.891-3.516-6.961-7.407-7.407H12.962C9.07,6.002,6,9.072,5.555,12.964v74.07
	C6,90.926,9.07,93.996,12.962,94.441h74.072c3.891-0.446,6.961-3.516,7.407-7.407V12.962L94.442,12.964z M61.164,50.58
	c3.02,2.124,4.711,5.671,4.459,9.355c0.261,4.297-1.825,8.398-5.452,10.716c-2.516,1.52-5.383,2.363-8.321,2.447v1.9
	c-0.001,0.777-0.331,1.517-0.907,2.037v1.482h-3.352v-1.229c-0.794-0.492-1.281-1.356-1.293-2.29v-2.023
	c-4.867-0.591-7.389-1.654-9.726-3.876c-2.222-2.222-3.283-4.646-4.026-9.292l5.139-0.809c-0.062,2.629,0.892,5.18,2.663,7.124
	c1.589,1.601,3.701,2.578,5.95,2.75V50.593c-2.741-0.481-5.367-1.473-7.742-2.924c-3.042-2.014-4.824-5.46-4.709-9.107
	c-0.101-3.966,1.871-7.699,5.205-9.85c2.175-1.403,4.665-2.24,7.246-2.436v-3.13c0.029-1.534,1.296-2.754,2.83-2.725
	c1.493,0.028,2.696,1.232,2.725,2.725v3.152c3.368,0.144,6.568,1.512,9,3.846c2.129,2.039,3.488,4.752,3.845,7.679l-5.017,0.926
	c-0.16-2.304-1.203-4.457-2.913-6.009c-1.345-1.281-3.07-2.091-4.915-2.306v16.584C56.829,48.207,59.179,49.12,61.164,50.58z
	 M57.446,66.935c2.137-1.652,3.338-4.239,3.222-6.937c0.128-2.405-0.967-4.712-2.911-6.133c-1.819-1.071-3.823-1.792-5.907-2.126
	v17.247C53.872,68.847,55.813,68.135,57.446,66.935z M41.52,32.306c-1.855,1.466-2.93,3.706-2.913,6.07
	c-0.063,2.883,1.701,5.491,4.4,6.505c1.055,0.466,2.154,0.823,3.281,1.065V30.462c-1.723,0.184-3.366,0.82-4.763,1.844
	C41.525,32.306,41.52,32.306,41.52,32.306z"/>
</svg>
