<?xml version="1.0" encoding="utf-8"?>
<!-- Generator: Adobe Illustrator 19.0.0, SVG Export Plug-In . SVG Version: 6.00 Build 0)  -->
<svg version="1.1" id="图层_1" xmlns="http://www.w3.org/2000/svg" xmlns:xlink="http://www.w3.org/1999/xlink" x="0px" y="0px"
	 viewBox="0 0 1001 1001" style="enable-background:new 0 0 1001 1001;" xml:space="preserve">
<style type="text/css">
	.st0{fill:#E94B3A;}
</style>
<path class="st0" d="M799.57,182.62C699.06,77.47,584.16-26.07,448.67,80.07c-52.27,40.96-76.05,99.21-139.49,136.04
	c-53.03,30.79-113.98,21.26-167.51,41.2C-20.13,317.54-14.31,408.33,18.86,564.71c18.76,88.4,89.6,389.67,212.97,400.38
	c124.99,10.85,123.31-216.56,175.28-281.33c44.86-55.95,170.51-125.89,237.51-141.63c90.9-21.34,252.57,82.59,328.54,12.75
	C1077.22,459.25,860.41,246.26,799.57,182.62z M304.46,612.53c-64.22,37.07-146.25,15.07-183.35-49.12
	c-37.05-64.22-15.07-146.25,49.14-183.35c64.2-37.05,146.25-15.07,183.33,49.12C390.66,493.4,368.68,575.46,304.46,612.53z
	 M543.82,190.57c5.61-20.94,27.12-33.39,48.08-27.77c20.94,5.61,33.37,27.14,27.75,48.08c-5.61,20.94-27.12,33.37-48.06,27.77
	C550.62,233.03,538.19,211.51,543.82,190.57z M544.22,340.72c-20.94-5.61-33.37-27.12-27.77-48.08
	c5.63-20.94,27.14-33.37,48.08-27.75c20.94,5.61,33.37,27.12,27.77,48.06C586.68,333.92,565.16,346.35,544.22,340.72z
	 M690.79,339.36c-5.63,20.94-27.14,33.37-48.08,27.77c-20.94-5.63-33.37-27.14-27.77-48.08c5.63-20.94,27.14-33.37,48.08-27.77
	C683.97,296.88,696.4,318.42,690.79,339.36z M718.14,237.27c-5.61,20.94-27.12,33.37-48.08,27.77
	c-20.94-5.61-33.37-27.14-27.75-48.08c5.61-20.94,27.14-33.37,48.06-27.77C711.33,194.79,723.76,216.33,718.14,237.27z
	 M197.93,427.98c-37.67,21.86-50.59,70-28.87,107.76c21.84,37.67,69.98,50.59,107.74,28.87c37.67-21.84,50.59-69.98,28.87-107.74
	C283.82,419.18,235.68,406.28,197.93,427.98z"/>
</svg>
