<?xml version="1.0" encoding="utf-8"?>
<!-- Generator: Adobe Illustrator 19.0.0, SVG Export Plug-In . SVG Version: 6.00 Build 0)  -->
<svg version="1.1" id="图层_1" xmlns="http://www.w3.org/2000/svg" xmlns:xlink="http://www.w3.org/1999/xlink" x="0px" y="0px"
	 viewBox="0 0 1001 1001" style="enable-background:new 0 0 1001 1001;" xml:space="preserve">
<style type="text/css">
	.st0{fill:#00AAEF;}
</style>
<g id="XMLID_194_">
	<path id="XMLID_221_" class="st0" d="M992.62,819.34L777.98,693.73l-61.64,98.27c0,0-207.08-3.98-357.1-239.73
		c-150.02-235.75-74.19-242.34-74.19-242.34c17.84-4.44,63.37-16.64,63.37-16.64L197.36,0c0,0-248.62,136.83-182.67,323.12
		c65.94,186.29,196.18,334.66,321.47,459.96c125.29,125.29,402.01,304.99,548.98,169.8C1032.11,817.7,992.62,819.34,992.62,819.34z"
		/>
	<g id="XMLID_223_">
		<g id="XMLID_241_">
			<path class="st0" d="M966.3,280c2.2,0,2.65-1.1,0.99-2.55L767.13,102.51c-1.66-1.45-3.13-0.79-3.13,1.41v86.21
				c0,2.2-1.57,3.87-3.77,3.87H550.84c-2.2,0-3.84,1.93-3.84,4.13v78.05c0,2.2,1.64,3.82,3.84,3.82H966.3z"/>
		</g>
		<g id="XMLID_238_">
			<path class="st0" d="M550.84,322c-2.2,0-2.65,1.1-0.99,2.55L749.94,499.5c1.66,1.45,3.06,0.79,3.06-1.41v-86.21
				c0-2.2,1.71-3.88,3.91-3.88H966.3c2.2,0,3.7-1.92,3.7-4.12v-78.05c0-2.2-1.5-3.83-3.7-3.83H550.84z"/>
		</g>
	</g>
</g>
</svg>
