<?xml version="1.0" encoding="utf-8"?>
<!-- Generator: Adobe Illustrator 19.2.0, SVG Export Plug-In . SVG Version: 6.00 Build 0)  -->
<svg version="1.1" id="图层_1" xmlns="http://www.w3.org/2000/svg" xmlns:xlink="http://www.w3.org/1999/xlink" x="0px" y="0px"
	 viewBox="0 0 98.443 100" style="enable-background:new 0 0 98.443 100;" xml:space="preserve">
<style type="text/css">
	.st0{fill:#E94B3A;}
</style>
<title>a_plane</title>
<path id="_复合路径_" class="st0" d="M59.716,33.371h2.46c2.083,0,3.127-0.886,3.127-2.677c0-2.035-1.937-3.054-5.81-3.057
	h-4.055L49.305,19.5h2.9c1.934,0,2.905-0.9,2.905-2.672c0-2.048-1.348-3.062-4.053-3.062h-5.918C38.307,4.589,33.996,0,32.206,0
	c-0.984,0.055-1.928,0.41-2.705,1.017c-0.813,0.431-1.358,1.239-1.45,2.155c0,0.767,1.03,2.742,3.089,5.927
	s5.053,9.137,8.981,17.858c3.933,8.719,5.9,13.988,5.9,15.809c0,1.167-1.751,1.808-5.265,1.916
	c-11.533,0.073-19.803,0.617-24.81,1.633c-1.565-1.74-3.002-3.591-4.3-5.538C9.357,37.592,7.785,35.7,6.929,35.1
	c-0.861-0.6-2.379-0.906-4.572-0.906C1.538,34.11,0.714,34.285,0,34.694c0,1.411,1.733,6.524,5.2,15.341
	C1.728,58.046-0.005,63.16,0,65.377c0.716,0.404,1.539,0.575,2.357,0.492c2.193,0,3.7-0.291,4.543-0.876s2.415-2.472,4.714-5.68
	c1.307-1.957,2.753-3.818,4.327-5.567c5.748,0.97,11.566,1.461,17.395,1.466c6.587,0.085,10.359,0.27,11.282,0.582
	c0.76,0.112,1.341,0.734,1.4,1.5c0,1.789-1.964,7.049-5.891,15.78c-3.924,8.744-6.919,14.706-8.986,17.887s-3.097,5.157-3.09,5.928
	c0.091,0.91,0.637,1.711,1.451,2.128c0.783,0.59,1.725,0.932,2.705,0.983c1.796,0,6.107-4.569,12.933-13.708h5.916
	c2.705,0,4.056-1.019,4.053-3.057c0-1.792-0.971-2.677-2.905-2.677h-2.9l6.133-8.134h4.056c3.873,0,5.809-1.019,5.81-3.056
	c0-1.792-1.045-2.682-3.127-2.682h-2.46l9.75-11.524h12.713c10.84,0,16.261-1.8,16.263-5.4c0-1.419-2.184-2.586-6.552-3.5
	c-3.189-0.751-6.44-1.206-9.712-1.36H69.466L59.716,33.371z"/>
</svg>
