<?xml version="1.0" encoding="utf-8"?>
<!-- Generator: Adobe Illustrator 19.2.0, SVG Export Plug-In . SVG Version: 6.00 Build 0)  -->
<svg version="1.1" id="图层_1" xmlns="http://www.w3.org/2000/svg" xmlns:xlink="http://www.w3.org/1999/xlink" x="0px" y="0px"
	 viewBox="0 0 93.775 99" style="enable-background:new 0 0 93.775 99;" xml:space="preserve">
<style type="text/css">
	.st0{fill:#00AAEF;}
</style>
<title>qq</title>
<g id="_编组_">
	<path id="_复合路径_" class="st0" d="M3.661,57.078c-3.665,8.625-4.26,16.854-1.32,18.392c2.028,1.059,5.209-1.352,8.186-5.779
		c1.332,5.003,4.226,9.45,8.262,12.694c-4.369,1.614-7.226,4.248-7.226,7.235c0,4.91,7.721,8.88,17.257,8.88
		c8.598,0,15.72-3.226,17.034-7.469c0.353-0.006,1.711-0.006,2.053,0c1.32,4.237,8.447,7.469,17.039,7.469
		c9.533,0,17.257-3.975,17.257-8.88c0-2.983-2.852-5.622-7.226-7.235c4.036-3.243,6.932-7.688,8.268-12.69
		c2.977,4.427,6.148,6.838,8.181,5.779c2.944-1.537,2.363-9.771-1.315-18.393c-2.88-6.779-6.785-11.771-9.772-12.869
		c0.044-0.43,0.065-0.869,0.065-1.304c0.017-2.477-0.667-4.908-1.972-7.013c0.018-0.153,0.025-0.307,0.022-0.461
		c0.002-1.15-0.264-2.284-0.777-3.313C76.922,14.492,65.45,0.5,46.888,0.5S16.836,14.492,16.089,32.114
		c-0.514,1.029-0.781,2.163-0.779,3.313c0,0.152,0.011,0.31,0.017,0.461c-1.298,2.108-1.977,4.537-1.961,7.013
		c0,0.435,0.017,0.869,0.054,1.304c-2.97,1.103-6.885,6.1-9.759,12.869l0,0L3.661,57.078z"/>
</g>
</svg>
