<?xml version="1.0" encoding="utf-8"?>
<!-- Generator: Adobe Illustrator 19.0.0, SVG Export Plug-In . SVG Version: 6.00 Build 0)  -->
<svg version="1.1" id="图层_1" xmlns="http://www.w3.org/2000/svg" xmlns:xlink="http://www.w3.org/1999/xlink" x="0px" y="0px"
	 viewBox="0 0 1001 1001" style="enable-background:new 0 0 1001 1001;" xml:space="preserve">
<style type="text/css">
	.st0{fill-rule:evenodd;clip-rule:evenodd;fill:#09BB07;}
</style>
<g id="XMLID_1_">
	<path id="XMLID_2_" class="st0" d="M942.12,990.99H824.35H412.18H294.41c-32.52,0-58.88-26.35-58.88-58.86v-19.62
		c0-32.51,26.37-58.86,58.88-58.86h19.63h608.45h19.63c32.52,0,58.88,26.35,58.88,58.86v19.62
		C1001,964.64,974.64,990.99,942.12,990.99z M314.04,794.79H157.02C70.3,794.79,0,724.52,0,637.84V245.45
		C0,158.76,70.3,88.49,157.02,88.49h117.77v78.48h-39.26c-6.25,0-12.37,0.34-18.43,0.86c6.73,16.73,10.58,34.94,10.58,54.08
		c0,80.18-65.03,145.18-145.24,145.18c-1.32,0-2.61-0.16-3.92-0.2v212.09c0,86.68,70.3,134.88,157.02,134.88h78.51V108.11
		c0-54.18,43.94-98.1,98.14-98.1h412.17c54.2,0,98.14,43.92,98.14,98.1v725.93H314.04V794.79z M82.43,316.27
		c52.14,0,94.41-42.25,94.41-94.37c0-15.42-3.8-29.88-10.4-42.69c-52.03,19.84-87.93,63.22-87.93,125.09v11.57
		C79.84,315.93,81.09,316.27,82.43,316.27z M824.35,147.35c0-32.5-26.36-58.86-58.88-58.86H471.06c-32.52,0-58.88,26.35-58.88,58.86
		V304.3c0,32.51,26.36,58.86,58.88,58.86h294.41c32.52,0,58.88-26.35,58.88-58.86V147.35z M824.35,480.88v-20.85
		c0-10.83-8.79-19.62-19.63-19.62H431.8c-10.84,0-19.63,8.78-19.63,19.62v20.85c0,10.83,8.78,19.62,19.63,19.62h372.92
		C815.56,500.5,824.35,491.72,824.35,480.88z"/>
</g>
</svg>
