<svg id="图层_1" data-name="图层 1" xmlns="http://www.w3.org/2000/svg" viewBox="0 0 72.375 98.211"><defs><style>.cls-1{fill:#12b7f5;}</style></defs><title>a_wae</title><g id="_编组_" data-name="&lt;编组&gt;"><path id="_路径_" data-name="&lt;路径&gt;" class="cls-1" d="M82.971,14.7C79.82,10.9,69.032,1.122,69.032,1.122c0.846,5.881-.888,9.5-2.059,12.6-1.1,2.916-2.98,7.933-1.532,11.916,0.033,0.119.064,0.237,0.1,0.355A10.483,10.483,0,0,0,85.1,27.182C87.662,22.748,85.182,17.364,82.971,14.7Z" transform="translate(-13.813 -1.122)"/><path id="_复合路径_" data-name="&lt;复合路径&gt;" class="cls-1" d="M43.567,7.579C40.943,23.8,33.375,31.917,27.725,39.135c-5.313,6.787-14.417,18.476-13.887,30.182-0.012.34-.026,0.679-0.026,1.022A28.99,28.99,0,0,0,64.445,89.631c10.426-9.588,8.33-25.844,4.694-34.7C63.961,42.3,43.567,7.579,43.567,7.579ZM53.42,62.8L41.473,85.346C40.7,86.806,40,86.65,40,85V70.97a2.973,2.973,0,0,0-2.925-3.022l-4.631-.035c-1.65-.012-2.352-1.217-1.583-2.677L42.668,42.693c0.769-1.46,1.332-1.3,1.332.346v14.03a3.1,3.1,0,0,0,3.075,3.022l4.706,0.035C53.431,60.138,54.189,61.343,53.42,62.8Z" transform="translate(-13.813 -1.122)"/></g></svg>