<?xml version="1.0" encoding="utf-8"?>
<!-- Generator: Adobe Illustrator 19.2.0, SVG Export Plug-In . SVG Version: 6.00 Build 0)  -->
<svg version="1.1" id="图层_1" xmlns="http://www.w3.org/2000/svg" xmlns:xlink="http://www.w3.org/1999/xlink" x="0px" y="0px"
	 viewBox="0 0 99.997 92.59" style="enable-background:new 0 0 99.997 92.59;" xml:space="preserve">
<style type="text/css">
	.st0{fill:#FFFFFF;}
</style>
<title>icon_wallet</title>
<path id="bd-wallet" class="st0" d="M99.998,64.813L99.998,64.813v15.282c-0.007,6.901-5.599,12.493-12.5,12.5h-75
	c-6.901-0.007-12.493-5.599-12.5-12.5v-67.6c0.007-6.901,5.599-12.493,12.5-12.5h75c6.901,0.007,12.493,5.599,12.5,12.5v15.282l0,0
	V64.813z M94.441,33.332H59.257c-7.159,0.063-12.911,5.917-12.849,13.076c0.062,7.07,5.778,12.786,12.849,12.849h35.184V33.332z
	 M94.441,12.962c-0.446-3.891-3.516-6.961-7.407-7.407H12.962C9.07,6,6,9.07,5.555,12.962v66.665
	C6,83.519,9.07,86.589,12.962,87.034h74.072c3.891-0.446,6.961-3.516,7.407-7.407V64.813H59.257
	c-10.227,0.002-18.519-8.288-18.521-18.515s8.288-18.519,18.515-18.521c0.002,0,0.004,0,0.006,0h35.184V12.963V12.962z
	 M55.553,46.295c0-3.068,2.487-5.555,5.555-5.555c3.068,0,5.555,2.487,5.555,5.555c0,3.068-2.487,5.555-5.555,5.555
	C58.04,51.85,55.553,49.363,55.553,46.295L55.553,46.295z"/>
</svg>
